<svg width="36" height="51" viewBox="0 0 36 51" fill="none" xmlns="http://www.w3.org/2000/svg">
<path d="M10.0377 22.0681H11.5824V28.5465H10.0377C9.39739 28.5465 8.875 28.0235 8.875 27.3824V23.2266C8.875 22.5855 9.39739 22.0625 10.0377 22.0625V22.0681Z" fill="white"/>
<path d="M12.4648 21.8075V28.8088L16.3462 31.7387C16.7675 32.0593 17.3685 31.75 17.3685 31.2213V19.4063C17.3685 18.872 16.7675 18.5684 16.3462 18.8889L12.4648 21.8188V21.8075Z" fill="white"/>
<path d="M23.8504 27.313V12.703C23.8504 12.4725 23.6594 12.2812 23.4291 12.2812C23.1988 12.2812 23.0078 12.4725 23.0078 12.703V27.313H23.8504Z" fill="white"/>
<path d="M23.0078 30.2422V37.9071C23.0078 38.1376 23.1988 38.3288 23.4291 38.3288C23.6594 38.3288 23.8504 38.1376 23.8504 37.9071V30.2422H23.0078Z" fill="white"/>
<path d="M19.7344 28.7812H27.1208" stroke="white" stroke-miterlimit="10" stroke-linecap="round"/>
<path d="M34.9726 8.11941L25.2383 1" stroke="white" stroke-miterlimit="10"/>
<path d="M34.9719 8.11941L35 48.2209C35 48.9857 34.3877 49.61 33.6294 49.61H2.37056C1.61226 49.6156 1 48.997 1 48.2322V2.0741C1 1.478 1.47745 1 2.06162 1H25.2376" stroke="white" stroke-miterlimit="10" stroke-linecap="round"/>
<path d="M25.2383 1V7.04532C25.2383 7.64141 25.7157 8.11941 26.2999 8.11941H34.9726" stroke="white" stroke-miterlimit="10" stroke-linecap="round"/>
</svg>
