<svg width="45" height="46" viewBox="0 0 45 46" fill="none" xmlns="http://www.w3.org/2000/svg">
<path d="M1 22.8125H25.5325" stroke="#FF0000" stroke-miterlimit="10" stroke-linecap="round"/>
<path d="M31.4805 22.8125H43.9995" stroke="#FF0000" stroke-miterlimit="10" stroke-linecap="round"/>
<path d="M22.5156 45.1293V24.8516" stroke="#FF0000" stroke-miterlimit="10" stroke-linecap="round"/>
<path d="M19.4844 34.5665V24.8516" stroke="#FF0000" stroke-miterlimit="10" stroke-linecap="round"/>
<path d="M16.4609 31.8594V24.8516" stroke="#FF0000" stroke-miterlimit="10" stroke-linecap="round"/>
<path d="M10.418 33.1006V24.8516" stroke="#FF0000" stroke-miterlimit="10" stroke-linecap="round"/>
<path d="M7.39844 28.381V24.8516" stroke="#FF0000" stroke-miterlimit="10" stroke-linecap="round"/>
<path d="M4.375 26.389V24.8516" stroke="#FF0000" stroke-miterlimit="10" stroke-linecap="round"/>
<path d="M25.5352 38.0244V24.8516" stroke="#FF0000" stroke-miterlimit="10" stroke-linecap="round"/>
<path d="M31.5781 34.5665V24.8516" stroke="#FF0000" stroke-miterlimit="10" stroke-linecap="round"/>
<path d="M34.6094 31.0779V24.8516" stroke="#FF0000" stroke-miterlimit="10" stroke-linecap="round"/>
<path d="M37.6289 33.1006V24.8516" stroke="#FF0000" stroke-miterlimit="10" stroke-linecap="round"/>
<path d="M40.6445 26.3941V24.8516" stroke="#FF0000" stroke-miterlimit="10" stroke-linecap="round"/>
<path d="M13.4297 36.8088V24.8516" stroke="#FF0000" stroke-miterlimit="10" stroke-linecap="round"/>
<path d="M22.5156 0.539062V20.781" stroke="#FF0000" stroke-miterlimit="10" stroke-linecap="round"/>
<path d="M19.4844 5.90625V20.78" stroke="#FF0000" stroke-miterlimit="10" stroke-linecap="round"/>
<path d="M16.4609 12.1719V20.7733" stroke="#FF0000" stroke-miterlimit="10" stroke-linecap="round"/>
<path d="M10.418 15.8125V20.7721" stroke="#FF0000" stroke-miterlimit="10" stroke-linecap="round"/>
<path d="M7.39844 14.5625V20.7735" stroke="#FF0000" stroke-miterlimit="10" stroke-linecap="round"/>
<path d="M4.375 19.2422V20.7745" stroke="#FF0000" stroke-miterlimit="10" stroke-linecap="round"/>
<path d="M25.5352 11.9688V20.7745" stroke="#FF0000" stroke-miterlimit="10" stroke-linecap="round"/>
<path d="M31.5781 13.3672V20.7683" stroke="#FF0000" stroke-miterlimit="10" stroke-linecap="round"/>
<path d="M34.6094 15.1719V20.7802" stroke="#FF0000" stroke-miterlimit="10" stroke-linecap="round"/>
<path d="M37.6289 17.2891V20.7725" stroke="#FF0000" stroke-miterlimit="10" stroke-linecap="round"/>
<path d="M40.6445 19.2344V20.7718" stroke="#FF0000" stroke-miterlimit="10" stroke-linecap="round"/>
<path d="M13.4297 8.55469V20.7826" stroke="#FF0000" stroke-miterlimit="10" stroke-linecap="round"/>
<path d="M35.7282 2.07542C32.495 2.07542 29.8594 4.73655 29.8594 8.01062C29.8594 9.6502 30.5234 11.1366 31.5909 12.2143L35.5136 9.76768L35.529 6.58556L34.8088 7.33639C34.7322 7.41301 34.6351 7.45387 34.533 7.45387C34.4359 7.45387 34.344 7.41812 34.2674 7.34661C34.1141 7.19849 34.109 6.95842 34.2571 6.80519L35.5494 5.45675C35.7486 5.24733 36.0857 5.24733 36.2849 5.45675L37.5261 6.75411C37.6742 6.90734 37.6691 7.14741 37.5159 7.29553C37.3626 7.44366 37.1226 7.43855 36.9745 7.28532L36.3002 6.58045V9.72682C36.3002 10.0077 36.1521 10.2733 35.9172 10.4164L32.1987 12.7353C33.1845 13.4912 34.4053 13.9458 35.7333 13.9458C38.9665 13.9458 41.597 11.2796 41.597 8.00551C41.597 4.73145 38.9665 2.07031 35.7333 2.07031L35.7282 2.07542Z" fill="#FF0000"/>
</svg>
