<svg width="36" height="51" viewBox="0 0 36 51" fill="none" xmlns="http://www.w3.org/2000/svg">
<path d="M34.9962 8.11701L25.2539 1" stroke="white" stroke-miterlimit="10"/>
<path d="M25.2574 1H2.06249C1.47784 1 1 1.48346 1 2.07373V48.2162C1 48.9808 1.61276 49.6048 2.37168 49.6048H17.9942" stroke="white" stroke-miterlimit="10" stroke-linecap="round"/>
<path d="M34.9961 8.10938V25.2948" stroke="white" stroke-miterlimit="10" stroke-linecap="round"/>
<path d="M25.2539 1V7.04327C25.2539 7.63917 25.7317 8.11701 26.3164 8.11701H34.9962" stroke="white" stroke-miterlimit="10" stroke-linecap="round"/>
<path d="M29.8906 44.4531L34.9895 49.6082" stroke="white" stroke-miterlimit="10" stroke-linecap="round"/>
<path d="M25.2652 32.6484C21.4369 32.6484 18.3281 35.7853 18.3281 39.6586C18.3281 43.5319 21.4313 46.6688 25.2652 46.6688C29.0936 46.6688 32.2024 43.5319 32.2024 39.6586C32.2024 35.7853 29.0992 32.6484 25.2652 32.6484ZM28.6776 37.7922L24.1016 42.4189L21.8529 40.1421C21.6899 39.9791 21.6899 39.7092 21.8529 39.5462C22.0159 39.3832 22.2858 39.3832 22.4488 39.5462L24.1016 41.2158L28.0761 37.1964C28.2391 37.0333 28.5089 37.0277 28.672 37.1964C28.835 37.3594 28.8406 37.6292 28.672 37.7922H28.6776Z" fill="white"/>
</svg>
