<svg width="36" height="51" viewBox="0 0 36 51" fill="none" xmlns="http://www.w3.org/2000/svg">
<path d="M34.9962 8.31232L25.2539 1.19531" stroke="#FF0000" stroke-width="0.994129" stroke-miterlimit="10"/>
<path d="M25.2574 1.19531H2.06249C1.47784 1.19531 1 1.67877 1 2.26905V48.4115C1 49.1761 1.61276 49.8001 2.37168 49.8001H17.9942" stroke="#FF0000" stroke-width="0.994129" stroke-miterlimit="10" stroke-linecap="round"/>
<path d="M34.9961 8.30469V25.4901" stroke="#FF0000" stroke-width="0.994129" stroke-miterlimit="10" stroke-linecap="round"/>
<path d="M25.2539 1.19531V7.23858C25.2539 7.83448 25.7317 8.31232 26.3164 8.31232H34.9962" stroke="#FF0000" stroke-width="0.994129" stroke-miterlimit="10" stroke-linecap="round"/>
<path d="M29.8906 44.6484L34.9895 49.8035" stroke="#FF0000" stroke-width="0.994129" stroke-miterlimit="10" stroke-linecap="round"/>
<path d="M25.2652 32.8438C21.4369 32.8438 18.3281 35.9806 18.3281 39.8539C18.3281 43.7273 21.4313 46.8641 25.2652 46.8641C29.0936 46.8641 32.2024 43.7273 32.2024 39.8539C32.2024 35.9806 29.0992 32.8438 25.2652 32.8438ZM28.6776 37.9876L24.1016 42.6142L21.8529 40.3374C21.6899 40.1744 21.6899 39.9045 21.8529 39.7415C22.0159 39.5785 22.2858 39.5785 22.4488 39.7415L24.1016 41.4111L28.0761 37.3917C28.2391 37.2286 28.5089 37.223 28.672 37.3917C28.835 37.5547 28.8406 37.8245 28.672 37.9876H28.6776Z" fill="#FF0000"/>
</svg>
