<svg width="52" height="53" viewBox="0 0 52 53" fill="none" xmlns="http://www.w3.org/2000/svg">
<path d="M21.1724 29.6439V20.5312H2.43334C1.6403 20.5312 1 21.1869 1 21.9989V50.3473C1 51.1593 1.64618 51.8149 2.43334 51.8149H29.3906C30.1837 51.8149 30.824 51.1593 30.824 50.3473V31.1115H22.5999C21.8069 31.1115 21.1666 30.4559 21.1666 29.6439H21.1724Z" stroke="#FF0000" stroke-miterlimit="10" stroke-linecap="round"/>
<path d="M50.9958 2.09264V29.6471C50.9958 30.4591 50.3497 31.1147 49.5625 31.1147H22.6052C21.8122 31.1147 21.1719 30.4591 21.1719 29.6471V2.09264C21.1719 1.28063 21.8122 0.625 22.6052 0.625H49.5684C50.3614 0.625 51.0017 1.28063 51.0017 2.09264H50.9958Z" stroke="#FF0000" stroke-miterlimit="5" stroke-linecap="round" stroke-dasharray="2 2"/>
<path d="M31.3638 21.734V31.1173H22.5171C21.6712 31.1173 21.1719 30.3895 21.1719 29.4753V20.0859H29.8248C30.6765 20.0859 31.3638 20.8198 31.3638 21.734Z" fill="#FF0000"/>
</svg>
