<svg width="55" height="55" viewBox="0 0 55 55" fill="none" xmlns="http://www.w3.org/2000/svg">
<path d="M53.4972 8.01694L24.9522 36.5682C23.5696 35.6151 21.8868 35.0556 20.0783 35.0556C18.6748 35.0556 17.3481 35.3941 16.175 35.9949C13.382 37.4107 11.4617 40.3183 11.4617 43.668C11.4617 45.4844 12.0204 47.1626 12.977 48.5439L8.0193 53.5027C7.34897 54.1658 6.27364 54.1658 5.60331 53.5027L1.49751 49.3934C0.834162 48.7304 0.834162 47.653 1.49751 46.9831L46.9824 1.49726C47.6458 0.834245 48.7281 0.834245 49.3915 1.49726L53.4972 5.60659C54.1676 6.26961 54.1676 7.34702 53.4972 8.01694Z" stroke="#FF0000" stroke-width="0.719815" stroke-miterlimit="10"/>
<path d="M42.6211 5.75781L45.2396 8.37535" stroke="#FF0000" stroke-width="0.719815" stroke-miterlimit="10" stroke-linecap="round"/>
<path d="M40.1016 8.29688L42.7131 10.9075" stroke="#FF0000" stroke-width="0.719815" stroke-miterlimit="10" stroke-linecap="round"/>
<path d="M37.5703 10.8281L40.1888 13.4457" stroke="#FF0000" stroke-width="0.719815" stroke-miterlimit="10" stroke-linecap="round"/>
<path d="M35.0391 13.3594L37.6576 15.9769" stroke="#FF0000" stroke-width="0.719815" stroke-miterlimit="10" stroke-linecap="round"/>
<path d="M32.5078 15.8672L35.1193 18.4847" stroke="#FF0000" stroke-width="0.719815" stroke-miterlimit="10" stroke-linecap="round"/>
<path d="M29.9766 18.4141L32.5951 21.0316" stroke="#FF0000" stroke-width="0.719815" stroke-miterlimit="10" stroke-linecap="round"/>
<path d="M45.1641 3.23438L47.7756 5.84501" stroke="#FF0000" stroke-width="0.719815" stroke-miterlimit="10" stroke-linecap="round"/>
<path d="M46.5391 9.66406L49.1506 12.2747" stroke="#FF0000" stroke-width="0.719815" stroke-miterlimit="10" stroke-linecap="round"/>
<path d="M44.0078 12.1953L46.6263 14.8129" stroke="#FF0000" stroke-width="0.719815" stroke-miterlimit="10" stroke-linecap="round"/>
<path d="M41.4883 14.7266L44.1068 17.3441" stroke="#FF0000" stroke-width="0.719815" stroke-miterlimit="10" stroke-linecap="round"/>
<path d="M38.957 17.2578L41.5685 19.8684" stroke="#FF0000" stroke-width="0.719815" stroke-miterlimit="10" stroke-linecap="round"/>
<path d="M36.4141 19.7656L39.0326 22.3832" stroke="#FF0000" stroke-width="0.719815" stroke-miterlimit="10" stroke-linecap="round"/>
<path d="M33.8945 22.3125L36.513 24.93" stroke="#FF0000" stroke-width="0.719815" stroke-miterlimit="10" stroke-linecap="round"/>
<path d="M49.0703 7.13281L51.6888 9.75035" stroke="#FF0000" stroke-width="0.719815" stroke-miterlimit="10" stroke-linecap="round"/>
<path d="M27.5352 20.8125L30.1467 23.43" stroke="#FF0000" stroke-width="0.719815" stroke-miterlimit="10" stroke-linecap="round"/>
<path d="M25.0039 23.3438L27.6224 25.9613" stroke="#FF0000" stroke-width="0.719815" stroke-miterlimit="10" stroke-linecap="round"/>
<path d="M31.4453 24.7031L34.0568 27.3207" stroke="#FF0000" stroke-width="0.719815" stroke-miterlimit="10" stroke-linecap="round"/>
<path d="M28.9141 27.2344L31.5326 29.8519" stroke="#FF0000" stroke-width="0.719815" stroke-miterlimit="10" stroke-linecap="round"/>
<path d="M27.5304 36.7062L26.4062 37.832C24.8351 36.1261 22.5797 35.0625 20.0799 35.0625C18.6764 35.0625 17.3497 35.4009 16.1766 36.0018L14.0678 33.8884C13.4045 33.2254 13.4045 32.148 14.0678 31.4781L18.1876 27.3618C18.8509 26.6919 19.9332 26.6919 20.5966 27.3618L27.5304 34.289C28.1937 34.9589 28.1937 36.0363 27.5304 36.7062Z" fill="#FF0000"/>
<path d="M26.4116 37.8242C25.9787 37.3545 25.4899 36.9332 24.9592 36.5672C23.5767 35.6141 21.8938 35.0547 20.0853 35.0547C18.6818 35.0547 17.3551 35.3931 16.182 35.994C13.389 37.4098 11.4688 40.3174 11.4688 43.667C11.4688 45.4834 12.0274 47.1617 12.984 48.543C14.5411 50.8014 17.1387 52.2793 20.0853 52.2793C24.8405 52.2793 28.6949 48.4255 28.6949 43.667C28.6949 41.4086 27.8291 39.3643 26.4116 37.8242Z" stroke="#FF0000" stroke-width="0.719815" stroke-miterlimit="10" stroke-linecap="round"/>
<path d="M20.0586 38.1562V45.6428" stroke="#FF0000" stroke-width="0.719815" stroke-miterlimit="10" stroke-linecap="round"/>
<path d="M20.7861 48.2955C20.7861 48.6892 20.4649 49.0138 20.0669 49.0138C19.6689 49.0138 19.3477 48.6892 19.3477 48.2955C19.3477 47.9018 19.6689 47.5703 20.0669 47.5703C20.4649 47.5703 20.7861 47.8949 20.7861 48.2955Z" fill="#FF0000"/>
</svg>
