<svg width="36" height="50" viewBox="0 0 36 50" fill="none" xmlns="http://www.w3.org/2000/svg">
<path d="M11.1555 9.42188C7.35321 9.42188 4.26562 12.5377 4.26562 16.385C4.26562 20.2323 7.34763 23.3481 11.1555 23.3481C14.9633 23.3481 18.0453 20.2323 18.0453 16.385C18.0453 12.5377 14.9633 9.42188 11.1555 9.42188ZM13.7852 16.8708L10.2007 18.9648C9.82663 19.1825 9.36321 18.9145 9.36321 18.4845V14.3022C9.36321 13.8722 9.83222 13.6042 10.2007 13.822L13.7852 15.9159C14.1537 16.1337 14.1537 16.6642 13.7852 16.882V16.8708Z" fill="#FF0000"/>
<path d="M35.0002 7.93027L25.2578 0.8125" stroke="#FF0000" stroke-width="1.00687" stroke-miterlimit="10"/>
<path d="M35 7.93027V48.0338C35 48.7984 34.3872 49.4225 33.6283 49.4225H2.37169C1.61276 49.4225 1 48.7984 1 48.0338V2.2012C1 1.43657 1.61276 0.8125 2.37169 0.8125H25.2576" stroke="#FF0000" stroke-width="1.00687" stroke-miterlimit="10" stroke-linecap="round"/>
<path d="M25.2578 0.8125V6.54158C25.2578 7.3062 25.8706 7.93027 26.6295 7.93027H35.0002" stroke="#FF0000" stroke-width="1.00687" stroke-miterlimit="10" stroke-linecap="round"/>
</svg>
