<svg width="52" height="51" viewBox="0 0 52 51" fill="none" xmlns="http://www.w3.org/2000/svg">
<path d="M45.038 23.5876C44.7038 22.1103 44.5045 21.2251 44.1704 19.7478L47.7757 13.434C45.4249 10.4677 45.3077 10.3153 42.9569 7.34893L36.0451 9.48282C34.6909 8.82624 33.8761 8.43346 32.5219 7.77688L29.8662 1H22.1396L19.484 7.77688C18.1298 8.43346 17.3149 8.82624 15.9607 9.48282L9.04901 7.34893C6.69821 10.3153 6.58096 10.4677 4.23016 13.434L7.8355 19.7478C7.50135 21.2251 7.30203 22.1103 6.96787 23.5876L1 27.703C1.83832 31.4022 1.87935 31.5898 2.71767 35.2889L9.86388 36.391C10.8019 37.5752 11.3646 38.2846 12.3026 39.4688L11.775 46.7322C15.1693 48.3795 15.3393 48.4616 18.7336 50.1089L24.0449 45.167H27.9551L33.2664 50.1089C38.478 47.5822 35.0134 49.2589 40.225 46.7322L39.6974 39.4688C40.6354 38.2846 41.1981 37.5752 42.1361 36.391L49.2823 35.2889C50.572 29.6083 49.7161 33.3836 51 27.703L45.0321 23.5876H45.038Z" stroke="white" stroke-linecap="round" stroke-linejoin="round"/>
<path d="M26.031 18.2422C22.0388 18.2422 18.7969 21.5134 18.7969 25.5525C18.7969 29.5917 22.0329 32.8629 26.031 32.8629C30.0291 32.8629 33.2652 29.5917 33.2652 25.5525C33.2652 21.5134 30.0291 18.2422 26.031 18.2422ZM29.5895 23.6062L24.8175 28.431L22.4726 26.0567C22.3026 25.8867 22.3026 25.6053 22.4726 25.4353C22.6426 25.2653 22.924 25.2653 23.094 25.4353L24.8175 27.1764L28.9622 22.9848C29.1322 22.8148 29.4136 22.809 29.5836 22.9848C29.7536 23.1548 29.7595 23.4362 29.5836 23.6062H29.5895Z" fill="white"/>
<path d="M26.0046 38.6148C33.1372 38.6148 38.9194 32.7671 38.9194 25.5535C38.9194 18.3399 33.1372 12.4922 26.0046 12.4922C18.872 12.4922 13.0898 18.3399 13.0898 25.5535C13.0898 32.7671 18.872 38.6148 26.0046 38.6148Z" stroke="white" stroke-miterlimit="10"/>
</svg>
