<svg width="47" height="44" viewBox="0 0 47 44" fill="none" xmlns="http://www.w3.org/2000/svg">
<path d="M43.3498 21.7876C43.355 16.4284 41.203 11.2244 37.1681 7.18947C28.9121 -1.07693 15.5037 -1.06141 7.2218 7.22568C-1.06012 15.5128 -1.07564 28.9366 7.18559 37.203C15.4416 45.4695 28.85 45.4539 37.1319 37.1668" stroke="white" stroke-miterlimit="10" stroke-linecap="round"/>
<path d="M22.1793 11.2734C16.1528 11.2734 11.2695 16.1619 11.2695 22.1987C11.2695 28.2304 16.1528 33.1241 22.1793 33.1241C28.2058 33.1241 33.0891 28.2356 33.0891 22.1987C33.0891 16.1671 28.2058 11.2734 22.1793 11.2734ZM22.7328 21.759C22.7328 22.2039 22.5621 22.6178 22.2466 22.9333L17.3116 27.8838C17.2236 27.9718 17.1046 28.0183 16.9908 28.0183C16.877 28.0183 16.7581 27.9718 16.6701 27.8838C16.4942 27.708 16.4942 27.4183 16.6701 27.2424L21.6051 22.2919C21.75 22.147 21.8276 21.9608 21.8276 21.759V14.76C21.8276 14.5117 22.0293 14.3048 22.2828 14.3048C22.5363 14.3048 22.738 14.5065 22.738 14.76V21.759H22.7328Z" fill="white"/>
<path d="M45.6398 19.8828L43.819 21.8589C43.581 22.0968 43.1982 22.0968 42.9654 21.8589L41.1445 19.8828" stroke="white" stroke-miterlimit="10" stroke-linecap="round"/>
</svg>
