<svg width="47" height="44" viewBox="0 0 47 44" fill="none" xmlns="http://www.w3.org/2000/svg">
<path d="M43.7092 21.7485C43.7144 16.3893 41.5624 11.1853 37.5275 7.15041C29.2714 -1.11599 15.8631 -1.10048 7.58118 7.18662C-0.700744 15.4737 -0.716264 28.8976 7.54497 37.164C15.801 45.4304 29.2094 45.4149 37.4913 37.1278" stroke="#FF0000" stroke-miterlimit="10" stroke-linecap="round"/>
<path d="M22.5387 11.2344C16.5122 11.2344 11.6289 16.1228 11.6289 22.1597C11.6289 28.1914 16.5122 33.085 22.5387 33.085C28.5652 33.085 33.4485 28.1965 33.4485 22.1597C33.4485 16.128 28.5652 11.2344 22.5387 11.2344ZM23.0922 21.72C23.0922 22.1649 22.9215 22.5787 22.6059 22.8942L17.6709 27.8448C17.583 27.9327 17.464 27.9793 17.3502 27.9793C17.2364 27.9793 17.1174 27.9327 17.0295 27.8448C16.8536 27.6689 16.8536 27.3792 17.0295 27.2033L21.9645 22.2528C22.1093 22.108 22.1869 21.9217 22.1869 21.72V14.721C22.1869 14.4727 22.3887 14.2657 22.6422 14.2657C22.8956 14.2657 23.0974 14.4675 23.0974 14.721V21.72H23.0922Z" fill="#FF0000"/>
<path d="M45.9992 19.8438L44.1783 21.8198C43.9404 22.0578 43.5576 22.0578 43.3248 21.8198L41.5039 19.8438" stroke="#FF0000" stroke-miterlimit="10" stroke-linecap="round"/>
</svg>
