<?xml version="1.0" encoding="utf-8"?>
<!-- Generator: Adobe Illustrator 24.0.1, SVG Export Plug-In . SVG Version: 6.00 Build 0)  -->
<svg version="1.1" id="Layer_1" xmlns="http://www.w3.org/2000/svg" xmlns:xlink="http://www.w3.org/1999/xlink" x="0px" y="0px"
	 viewBox="0 0 45 17.1" style="enable-background:new 0 0 45 17.1;" xml:space="preserve">
<style type="text/css">
	.st0{fill:#FFFFFF;}
</style>
<title>TV+</title>
<path class="st0" d="M9.4,2.7C10.1,2,10.4,1,10.3,0c-1,0.1-1.9,0.6-2.5,1.3C7.2,2,6.8,3,6.9,3.9C7.9,4,8.8,3.5,9.4,2.7 M10.3,4.1
	C8.9,4,7.7,4.9,7,4.9S5.3,4.2,4.2,4.2C2.8,4.2,1.4,5,0.7,6.3c-1.5,2.6-0.4,6.5,1.1,8.6c0.7,1,1.6,2.2,2.7,2.2s1.5-0.7,2.8-0.7
	s1.7,0.7,2.8,0.7s1.9-1,2.6-2.1c0.5-0.7,0.9-1.6,1.2-2.4c-1.4-0.6-2.3-2-2.3-3.5c0-1.3,0.7-2.6,1.8-3.3C12.6,4.8,11.5,4.2,10.3,4.1
	 M19.2,2.1V5h2.3v1.9h-2.3v6.8c0,1,0.5,1.5,1.5,1.5c0.3,0,0.5,0,0.8-0.1V17c-0.4,0.1-0.9,0.1-1.4,0.1c-2.4,0-3.3-0.9-3.3-3.2v-7H15
	V5h1.7V2.1L19.2,2.1z M29.4,17h-2.5L22.7,5h2.5l3,9.6h0.1l3-9.6h2.4L29.4,17z M40.4,17h-2.2v-4.9h-4.6V9.9h4.6V5h2.2v4.9H45v2.2
	h-4.6V17z"/>
</svg>
