<?xml version="1.0" encoding="utf-8"?>
<!-- Generator: Adobe Illustrator 24.0.1, SVG Export Plug-In . SVG Version: 6.00 Build 0)  -->
<svg version="1.1"
	 id="svg87" xmlns:cc="http://creativecommons.org/ns#" xmlns:dc="http://purl.org/dc/elements/1.1/" xmlns:inkscape="http://www.inkscape.org/namespaces/inkscape" xmlns:rdf="http://www.w3.org/1999/02/22-rdf-syntax-ns#" xmlns:sodipodi="http://sodipodi.sourceforge.net/DTD/sodipodi-0.dtd" xmlns:svg="http://www.w3.org/2000/svg"
	 xmlns="http://www.w3.org/2000/svg" xmlns:xlink="http://www.w3.org/1999/xlink" x="0px" y="0px" viewBox="0 0 1000 329.8"
	 style="enable-background:new 0 0 1000 329.8;" xml:space="preserve">
<style type="text/css">
	.st0{fill:#FFFFFF;}
</style>
<sodipodi:namedview  bordercolor="#666666" borderopacity="1.0" fit-margin-bottom="0" fit-margin-left="0" fit-margin-right="0" fit-margin-top="0" id="base" inkscape:current-layer="layer1" inkscape:cx="1134.4996" inkscape:cy="-132.61488" inkscape:document-units="px" inkscape:pageopacity="0.0" inkscape:pageshadow="2" inkscape:window-height="705" inkscape:window-maximized="1" inkscape:window-width="1366" inkscape:window-x="-8" inkscape:window-y="-8" inkscape:zoom="0.7" pagecolor="#ffffff" showgrid="false" units="px">
	</sodipodi:namedview>
<g id="layer1" transform="translate(463.37194,-69.476276)" inkscape:groupmode="layer" inkscape:label="Layer 1">
	<path id="path4" inkscape:connector-curvature="0" class="st0" d="M-241,192.8c16.6,13.5,24.8,34.5,24.8,63v143.5H-295V266.4
		c0-5.8-2.2-10.9-6.5-15.2c-4.3-4.3-9.4-6.5-15.2-6.5h-46c-5.8,0-10.8,2.2-14.9,6.5c-4.1,4.3-6.2,9.4-6.2,15.2v132.9h-79.5V69.5
		h79.5v107.5c1.2-0.4,4.1-1.2,8.7-2.5c4.6-1.2,10.6-1.9,18-1.9h50.9C-279.3,172.6-257.6,179.3-241,192.8z M9.3,172.6h79.5v139.1
		c0,26.1-7.1,47.2-21.4,63.4c-14.3,16.1-33.6,24.2-58.1,24.2H-69c-27.3,0-49.2-7.5-65.5-22.7c-16.4-15.1-24.5-36.7-24.5-64.9V172.6
		h79.5v132.9c0,5.8,2.1,10.8,6.2,14.9c4.1,4.1,9.1,6.2,14.9,6.2h46c5.8,0,10.9-2.1,15.2-6.2c4.3-4.1,6.5-9.1,6.5-14.9L9.3,172.6z
		 M149.1,69.5h79.5v329.8h-79.5L149.1,69.5z M536.6,172.6v139.1c0,26.1-7.1,47.2-21.4,63.4c-14.3,16.1-33.6,24.2-58.1,24.2h-77.6
		c-27.7,0-49.8-7.5-66.1-22.7c-16.4-15.1-24.5-36.7-24.5-64.9V172.6h79.5v132.9c0,5.8,2.1,10.8,6.2,14.9c4.1,4.1,9.1,6.2,14.9,6.2
		H436c5.8,0,10.8-2.1,14.9-6.2c4.1-4.1,6.2-9.1,6.2-14.9V172.6H536.6z"/>
</g>
</svg>
