<?xml version="1.0" encoding="utf-8"?>
<!-- Generator: Adobe Illustrator 24.0.1, SVG Export Plug-In . SVG Version: 6.00 Build 0)  -->
<svg version="1.1"
	 id="Layer_1" xmlns:inkscape="http://www.inkscape.org/namespaces/inkscape" xmlns:sodipodi="http://sodipodi.sourceforge.net/DTD/sodipodi-0.dtd" xmlns:svg="http://www.w3.org/2000/svg"
	 xmlns="http://www.w3.org/2000/svg" xmlns:xlink="http://www.w3.org/1999/xlink" x="0px" y="0px" viewBox="0 0 1000 787.5"
	 style="enable-background:new 0 0 1000 787.5;" xml:space="preserve">
<style type="text/css">
	.st0{fill:#FFFFFF;}
</style>
<sodipodi:namedview  bordercolor="#666666" borderopacity="1.0" height="936.48901px" id="namedview45" inkscape:current-layer="Layer_1" inkscape:cx="652.8409" inkscape:cy="407.913" inkscape:pagecheckerboard="0" inkscape:pageopacity="0.0" inkscape:pageshadow="2" inkscape:window-height="705" inkscape:window-maximized="1" inkscape:window-width="1366" inkscape:window-x="-8" inkscape:window-y="-8" inkscape:zoom="0.55526546" pagecolor="#ffffff" showgrid="false">
	</sodipodi:namedview>
<g id="g151">
	<path id="path2" class="st0" d="M24.9,562.1l13.8-20.8l23.9,6.5l-15.6-19l13.4-20.6l-23.2,9.1l-16.1-19l1.4,24.7L0,531.4l23.5,6.2
		L24.9,562.1z M21.6,470.3l17.5-18l22.3,11l-11.7-21.6l17-17.7l-24.4,4.5l-12.2-21.8l-3.2,24.5L3,435.3l21.9,10.5L21.6,470.3z
		 M36,379.3l20.5-14.2L76.5,380L69,356.6l20.3-14l-25-0.3l-7.7-23.6l-8,23.5l-24.2-0.6L43.9,356L36,379.3z M139.1,209.2l12.8,21.3
		l1.8-24.3l24-5.7l-22.9-9.5l1.6-24.7l-16.1,18.8l-22.3-9.6l12.6,20.7l-16,18.6L139.1,209.2z M435.7,63.6l18.4-16.3L475.2,60
		l-10-22.9l18.4-16.6l-24.6,2.3l-9.3-22.3l-5.4,23.6l-24.4,2.4l21.3,12.8L435.7,63.6z M83.6,735.5l5-24.5l24.7-3l-21.6-11.8l4.6-24
		l-18.1,17l-22-11.5L66.8,700l-17.7,16.4l24-3.1L83.6,735.5z M200.7,145.8l8.6,23.4l6.5-23.7l24.6-0.8l-20.7-13.7l6.4-24.1
		l-19.3,15.3l-20.1-13.5l8.3,22.7l-19.2,15.2L200.7,145.8z M273.5,95.1l3.9,24.6l11-22l24.3,3.9L294.8,84l10.9-22.4L283.6,73
		l-17-17.1l4,23.8l-21.8,11.4L273.5,95.1z M353.6,84l14.9-19.6l23.2,8.4l-14.1-20.5l14.9-19.8l-23.8,6.8l-13.4-20l-0.7,24.2
		L331,50.4l23.5,8.7L353.6,84z M39.8,628.1l6,23.8l9.6-23.2l24.9,1.8l-19-15.6l9.2-22.7l-21,13.3l-19.4-15.6l6.1,24l-20.6,12.7
		L39.8,628.1z M67.6,293.3l22.9-10.1l16.6,18.5l-2.8-24.4l22.4-10l-24.3-5l-3.1-24.7L86.9,259l-23.6-5.1l16.3,18L67.6,293.3z
		 M780.4,142.7l6.4,23.7l8.9-23.2l24.8,0.7l-19.2-15.4L810,106l-20.3,13.3l-19.1-15.4l6.3,24.2l-20.9,13.6L780.4,142.7z
		 M819.2,196.9l23.9,5.6l1.6,24.6l13-21.2l24.3,5.5l-16-18.9l12.9-20.4l-22.4,9.2l-16-18.7l1.6,24.9L819.2,196.9z M707.5,95.6
		l10.8,22l4.2-24.4l24.6-3.9l-21.8-11.6l4.2-23.8l-17.3,17l-21.8-11.4L701,82l-17.7,17.3L707.5,95.6z M893.3,273.4l-3,24.3
		l16.9-18.3l22.7,10l-12.2-21.6l16.6-17.6l-23.8,4.8l-12.1-21.6l-3.1,24.8l-24.3,4.7L893.3,273.4z M603.7,71.4l23.3-8.3l14.7,19.8
		l-0.7-25l23.5-8.5l-23.7-7.2l-0.4-24.2l-13.8,20l-23.5-7.1l14.9,20.1L603.7,71.4z M977.5,518.4l1.7-24.6L962.9,513l-23.1-9.4
		l13.2,20.6l-15.8,18.9l24.1-6.2l13.6,20.8l1.6-24.7l23.5-5.8L977.5,518.4z M961,623.6l24.2-1.2l-20.3-13.1l6.2-23.7l-19.6,15.6
		l-20.8-13.6l9.1,23l-19.3,15.4l24.9-1.5l9.4,23L961,623.6z M913.1,706.9l4.7,24.5l10.8-22.3l23.9,3.5L935,695.9l10.8-22.1
		l-22.2,11.6l-18-17.3l4.6,24l-21.6,11.6L913.1,706.9z M304.8,552.2c-1.9-1.5-25.3,22.2-40.5,38.8c-5.4,5.8-8.9,11.2-11,13.8
		c0,0-6.7,11.1-10.3,15.8c-3.6,4.7-12.6,17.9-16.6,23.7c-1.4,1.9-4.9,10.3-11.9,18.9c-3.5,4.3-6.9,10-13.7,18.7
		c-9,11.6-15.8,21.1-14.3,22.4c0.9,0.6,14.2-15.4,28.4-32.7c5.9-7.2,12.3-14.6,17.8-21.6c2.7-3.4,8.8-9.1,10.8-12
		c3.5-5.2,7.3-9.1,8.8-10.4c7.9-6.5,12.4-6.9,15-10.6c1.2-1.8,16.9-25.4,22.6-35.1C295.1,572.8,308,555,304.8,552.2 M969.3,402.4
		L957,424.2l-24.4-4.8l17,17.9l-11.8,21.4l22.4-10.6l17.3,17.8l-3.1-24.6l22-10.1l-23.9-4.4L969.3,402.4z M909.3,338.1l20,14.2
		l-7.6,23.5l19.9-14.8l20.6,14.3l-7.9-23.5l19.6-14.2l-24.1,0.2l-7.8-23.4l-7.8,23.7L909.3,338.1z M520.1,59.4l21.2-12.5l18.2,16.3
		l-5.4-24.3l21.2-12.7l-24.6-2.6l-5-23.7l-9.7,22.2l-24.4-2.3l18.5,16.7L520.1,59.4z M523.3,490.9c2.3,6.8,10.8,46.7,13.3,55
		c2.6,8.2,5.1,8.7,6.6,11.9c5,12.4,12.1,12.9,15.8,13.9c10.3,3.1,11.1,16.9,17.7,29.2c6.1,11.5,11.9,21.9,17.3,34.4
		c5.4,12.6,33,80.6,37.8,91c1.6,3.8,14.7,3.8,13.3,0c-3.3-7.5-10.9-26.3-15.6-45.1c-3-12.2,8.4-3.5,1.2-23.1
		c-3.4-8.9-9.7-17.8-13.3-21.5c-3.7-3.6-7.2-19-10-25.9c-3-6.7-1.5-7.1-7.6-23.3c-4.6-11.9,8.2-7.9,1.1-26.2
		c-4.6-11.9-28.3-54.9-31-59.3c-1.3-2.4-5.9-9.9-11.5-18.7c-5.3-8.4-9.7-17.3-12.2-21.2c-4.9-7.9-13.9-25.1-19-32.3
		c-5-7.2-11.3-23.1-13.9-20.4c-2.6,2.3,7.6,26.1,11.8,41.2c4.4,15.1,1.2,21.2-1.4,25.5C520.8,480.4,520.8,483.2,523.3,490.9
		 M683.6,614.1c7,11.6,8.8,9.3,11.7,9.4c6.5,0.2,21.2,15.9,24.1,20.2c2.8,4.3,26.4,27.8,32.4,33.6c2.7,2.5,21.3,32.7,23.7,30.5
		c2.5-2.2-7.2-16.8-8.6-20.1c-1.3-3.2-6.7-7.9-9.3-14.8c-2.4-6.7-13.5-23.7-17.2-29c-3.6-5.4-9.4-17.4-15.8-24.9
		c-5.9-6.6-1.2-8.5-7.3-14.3c-3.7-3.5-15.1-13.6-17.7-15.7c-2.4-2.2-11.8-10.5-17.1-15.1c-5.3-4.5-18.1-13.4-17.6-19
		c0.2-5.8-2.6-16.8-6.9-20.5c-3.1-2.7-12.2-17.3-22.7-25.8c-5.3-4.4-16.5-16.1-25.2-26.2c-8.1-9.6-14.2-18.5-16.1-17.2
		c-2.7,1.8,9.4,18.8,10.7,20.8c1.3,1.9,15.4,26.3,16.7,32.7c1.5,6.5,27.7,50.6,33.3,64.3C658.1,590.8,676,601.5,683.6,614.1
		 M798.2,656.8c0.9-1.1-1.6-4.3-3-6.8c-1.5-2.5-10.4-12.4-12.1-15.2c-1.5-2.6-13.1-19.1-17.1-24.5c-7.3-9.3-0.6-12.7-4.4-18.5
		c-1.5-2.5-10.8-13.7-21.6-24.8c-5.6-5.5-11.8-10.9-17-15.6c-8.5-7.6-15-13.3-16.1-12.3c-1.5,1.5,3.5,7.6,5.7,10.4
		c2.2,2.7,5.6,7.6,10.1,12.9c7.3,8.7,0.5,15.3,7.5,22.3c1.2,1.2,20.4,22.7,25.2,26.7c7,6.3,32.2,36.1,33.9,37.8
		C792.2,651.9,797.4,657.8,798.2,656.8 M400.4,515.2c1.4-3,5.8-12.3,5.6-16c0-0.7-1.6-1.8-3-0.4c-6.5,6.4-19.6,29.1-24.6,31.7
		c-11.2,5.4-16.2,18.6-19.5,23.9c-2.4,3.9-5.5,10.1-10.8,17.9c-4.7,6.8-10,16.9-12,20.4c-1.9,3.7-2.7,7,1,7s0.8,5.9-3.6,12.4
		c-2.5,3.8-8.8,22-10.6,27c-2.4,6.1-2,13.9-2.9,16.5C319,658,307.1,683.4,304,689c-1.9,3.5-1.4,5-2.1,6.9c-1.1,2.4,0.3,3.1,2.1,1.4
		c2.3-2.3,15-21.6,18.9-23.9c3.8-2.4,7.3-5.9,7.9-14.3c0.6-8.3,6-10.6,10-15.4c4.2-4.8,9.7-11.3,12.7-18.1c2.8-7,6.4-1.7,12.8-12.1
		c6.5-10.5,21-36.3,24.3-41.3c3.2-5,0.8-12.2,0.4-18.2c-0.2-3.1,0.3-10.9,2.1-19.1C395,527.6,398.4,520.1,400.4,515.2 M455.9,317.7
		c5.4,0,13.2-9.8,17.4-18.3c4.4-9.2,6.6-14.4,12.1-26.2c0.2-0.6-0.3-0.6-0.9-0.6c-6.2,0-13.1,6.4-17.5,11.5
		c-5.2,6.4-13.7,18.4-15,27C451.2,315.8,453.2,317.7,455.9,317.7 M594.2,326c6.1,3.1,13.7-10.4,20.3-22.6
		c6.5-12.3,11.8-27.7,6.2-29.6c-6.2-2.5-14.2,9.5-20.8,21.8C593.4,307.9,588.5,323.3,594.2,326 M358,317.7c5.5,0,13.1-9.8,17.6-18.3
		c4.3-9.2,6.6-14.4,12-26.2c0.3-0.6-0.3-0.6-0.8-0.6c-6.3,0-13.1,6.4-17.5,11.5c-5.2,6.4-13.8,18.4-15,27
		C353.3,315.8,355.5,317.7,358,317.7 M298,206.5c42.5,2,67.5,22.8,67.5,45.2c0,40-63.4,46.8-63.4,46.8c-11,55.4-54.9,76.5-85.3,76.2
		c-40.8-0.3-40.2-33.4-38.8-37.6c1.7-4.9,4.2-9.4,9.4-9.4c5.1,0,9.3,4.2,9.3,9.4c0,3.1-1.6,6.1-4.2,7.7c-5.4,3.3-4.3,7.5-4.3,7.5
		c0,17.6,22.7,18.9,28.7,18.9c60.8,0,53.8-100.1,107.4-134.1c2.4-1.6,4.3,0,2.8,1.7c-16.7,21-23,54.8-23,54.8
		c25.8,0,42.9-24.6,42.9-41.7c0-29.3-26.4-41.5-48.9-41.5c-62.6,0-89.8,43.7-89.8,67.5c0,23.9,15,32.5,25.9,32.5
		c15.2,0,19.9-10.1,18.1-15.1c-3-7.8,1.1-14.3,5.8-14.3c1.9,0,8.1-0.3,8.1,10.7c0,10.6-15,21.2-31.6,21.2c-16.4,0-40.3-8.9-40.3-35
		C194.2,224.7,259.5,204.6,298,206.5 M403.4,271.3c-6.8,15.3-11.8,26.3-18,40.8c-0.5,1.4-1,3.8,0.3,4.6c1.1,0.5,2.5,0.5,3.2,0
		c8-3.9,15-13.2,20.6-23.8l9.9-21.8h13.9l-3.8,8.2c-0.3,0.4-0.3,0.7,0,0.4c4.3-3.3,8.9-8.2,14.5-11.2c2.2-1,7.3-1,6.8,2.6
		c-0.3,3.2-2.7,5.6-4.1,8.7c-0.8,1.9-1.6,4.4-1.4,5.7c0.6,1.5,2.2,2.3,4.3,0.6c2.2-1.4,3.9-2.5,5.8-4.1c3.5-3.4,7.8-6.5,12.7-9.1
		c9.9-4.6,23.3-7.5,33.1-1.3c-6.9,15.4-12,26.8-18.6,41.2c-1.2,2.5-0.2,3.3,0.6,3.9c0.8,0.5,2.4,0.8,4.6-0.4
		c5.4-2.3,15-12.9,18.8-21.2c3.6-7.7,6.9-15.3,10.8-24h14.3l-4,8.4l0.6,0.3c3.8-3.5,13.8-11.5,21.1-9.8c4.1,0.8,6.1,5.7,5.8,9.3
		c4.6-3.4,9.4-7.5,16.3-9.2c9.9-2.4,13.7,4.4,10.7,11c-3.8,9-11.5,26.7-15.8,35.8c-0.5,0.9-0.5,3,0,3.4c1.1,0.9,3.1,0,3.9-0.4
		c4.9-4.2,7.6-6.9,11.4-12.3c1.1-9.6,6.2-18.4,13.4-25.7c7.6-8.5,19.6-15,31.2-11.2c4,1.3,6.8,5.4,7.9,9.5c0.5,2.2,1.1,3.3,1.1,5.8
		c6.1,4.4,14-2.8,17.2-8.2c0.9-2.2,2-4.6,2.5-6.3c3.5,0.3,10.2,0,14.2,0l-17.8,40.8c-1.1,2.4-1.4,3.8-1.4,5.6c0,1.5,1.6,1.8,3.4,1.5
		c4.9-0.9,12.9-10.5,16.9-18.6c4.5-10.1,9-18.6,13.4-28.7h14.4c-5.8,13.6-12.3,28.1-17,38.8c-1.1,2.2-2.4,4.4-1.7,7.4
		c0.6,1.4,2.5,1.2,3.7,0.6c6.2-3.6,17-15.6,20.7-23c3.9-8.8,6.8-15.3,10.8-23.8h14.8l-3.5,8.5c5.5-4.4,11.5-9.1,18.6-10.2
		c3.3-0.4,7.3-0.3,9.3,3.1c2.2,3.8,0.9,7.8-0.8,11.5c-4.1,9.3-8.8,19.4-12.9,28.4c-0.8,2.2-1,4.3,0.5,5.2
		c2.3,1.4,12.6-4.9,17.9-16.4c4.6-10.1,7.7-16.1,11.7-25.9h-7.6l2.1-4.4h7.7l10.9-23.8h14.7l-10.6,23.8h11.1l-2.1,4.4h-10.9
		c-6.3,13.3-11.6,24.6-17,37.1c-2.1,4.3-4.3,11.5-3.2,15.9c0.8,2.4,3.9,3.1,6.6,2.1c8.4-2.9,14.2-10.1,19.1-17.7
		c0.3-0.8,4.7-0.3,4.4,0.4c-5.8,11.4-18.3,23-30.3,22.7c-3.6,0-7.5-2.2-9.6-5.3c-1-1.6-1.7-2.9-2.2-4.8c-0.8-3.1-0.5-6.6,0-9.9
		c-6.5,5-12.7,10.9-21,12.6c-3.6,0.5-8.2-0.8-9-4.6c-0.5-3-0.3-6.3,0.8-9c5.2-11.2,9.8-21.3,14.7-33.1c0.4-0.5,0-2.5-0.6-2.7
		c-0.8-0.8-3.2-0.8-5.4,0.9c-10.1,7.6-15.3,17.5-19.6,27.6c-3.1,6.8-6.4,13.6-9.6,20.3H689c1.7-4.1,4.1-9.6,6-14
		c0-0.3-0.3-0.3-0.3,0c-6,5.9-13.7,12.7-21.2,14.8c-3.1,0.8-6.1-0.2-7.7-3.1c-1.7-2.7-2.2-6.7-0.8-10.4c0-0.2-0.1-0.2-0.4,0
		c-5.4,5.5-10.7,10.4-17.9,12.9c-8.3,2.5-15.7-3.3-10.5-15.3c1.4-3.2,5.5-12.3,10-23.2c-3.8,1.5-8.4,1.5-10.8,0.8
		c-0.3,0-0.3,0-0.3,0.3c-3.2,15.3-12.3,29.2-26.2,35.8c-6.8,3.3-14.6,4.2-21.3-0.5c-3.3-2.2-5.2-7.5-5.5-12.1
		c-7,7.1-15,16.1-25.9,14.6c-1.6-0.4-3-1.8-3.8-3.3c-2.5-4.1-1-8.5,0.5-12.1c5.2-10.9,9.5-21.1,14.7-33.3c0.8-1.7-1.5-3-3.2-2.2
		c-5.2,2.5-8.4,5-11.2,9.4c-1.6,2.4-3.1,5.1-4.3,7.7c-4.8,10.5-9.9,21.4-14.3,32h-14.8c6.6-14.9,12.9-29.4,19.4-44.2
		c0.6-1.4,0.3-3.3-0.5-3.8c-1.3-0.7-3.6,0.4-5.1,1.3c-3.5,2.4-6.7,5.7-9,9.9c-2.5,4.1-4.7,8.1-6.5,12.6L507,327.3h-14.5
		c1.4-3.2,4.1-9.6,5.8-12.7c0-0.3-0.3-0.5-0.3-0.3c-7.9,6.5-18.1,15-25.4,13.6c-2.5-0.3-4.6-2.4-5.2-4.6c-0.5-2.8-0.3-5.3,0.3-7.6
		c0-0.3-0.3-0.3-0.6,0c-6.3,6-12,11-20,12.9c-4.6,1-8.9-1.9-10.3-5.3c-2-3.8-2.5-9.8,0.8-16.7c1.9-4.4,4.1-9,6.8-12.8
		c-1.6,0.8-4.8,1.1-7,0.8c-1.9-0.3-3.9-1.7-4.8-3.1c-1.1-1.2-1.4-3.7-1.4-5.4c0.3-0.3-0.6-0.3-1.2,0c-4.3,3.5-6.3,7.7-8.5,12.3
		l-12.6,28.5h-14.8l5.4-12.1c0.3-0.2,0-0.5-0.3-0.2c-7.7,6.8-16.9,14.6-24.3,13.1c-2.1-0.4-4.4-2.5-4.9-4.6c-0.5-2.6-0.3-5.3,0-7.7
		h-0.5c-6,6-11.8,10.9-19.6,12.6c-4.5,1.4-8.5-1.3-10.2-5.1c-2.2-5.6-1.4-11.2,0.6-16.5c5.7-14.8,16.2-25.4,30.3-33.4
		C379.6,267.8,393.5,266.2,403.4,271.3 M85.6,500.3c0,62.5,16.6,133,46.2,190.8c53.5-49.9,193.9-208.4,210-226.8
		c24.5-28,35.1-10.2,48.2-25.8c7-8.6,11.2-11.9,14.2-13.6c5-3,10.8-10.2,13.7-12.3c2.9-2.2,9.4-10.8,14.4-15.1
		c5.1-4.3,15-10.8,25.2-19.4c10.1-8.7,27.3-28.8,46-28.8c22.3,0,31.6,15.1,33.5,16.9c1.6,1.7,15.3,13.9,17.5,16.2
		c2.4,2.7,17.1,14.3,25.1,14.3c7.9,0,13.7,8.6,18,12.9c9.4,8.6,48.4,49.5,61.2,58.2c5.7,3.9,11.1,3.2,15.4,6.6
		c4.4,3.2,6.6,5.3,9,6.1c2.4,0.7,10.8-1.5,20.5,10.7c4.5,3.1,5.7,3.6,5.7,3.6s13.2,12,18,20.4c4.3,7.3,102.9,138.3,138.3,185.2
		c32.8-59.4,51.5-127.6,51.5-200.2c0-229.7-186.2-415.8-415.8-415.8C271.7,84.6,85.6,270.7,85.6,500.3"/>
	<path id="path6" class="st0" d="M841.5,755.9v4.7h9v24.6h5.7v-24.6h8.9v-4.7H841.5z M895.4,755.9l-7.9,20.8l-8.1-20.8h-8.2v29.3
		h5.3v-22.9h0.1l8.9,22.9h3.9l8.7-22.9h0.2v22.9h5.3v-29.3H895.4z"/>
</g>
</svg>
