<?xml version="1.0" encoding="UTF-8"?>
<svg width="103px" height="40px" viewBox="0 0 103 40" version="1.1" xmlns="http://www.w3.org/2000/svg" xmlns:xlink="http://www.w3.org/1999/xlink">
    <!-- Generator: Sketch 55.2 (78181) - https://sketchapp.com -->
    <title>Ubisoft_BB_Logo_black</title>
    <desc>Created with Sketch.</desc>
    <g id="Symbols" stroke="none" stroke-width="1" fill="none" fill-rule="evenodd">
        <g id="Desktop/Navigation/white" fill="#FFFFFF">
            <g id="Desktop/Navigation">
                <g id="Ubisoft_BB_Logo_white">
                    <g id="Ubisoft_BB_Logo_Black">
                        <path d="M0.0549679043,11.2261182 L0.0549679043,0.329245156 L3.99599811,0.329245156 L3.99599811,10.9147753 C3.99599811,13.5611254 5.24055444,15.0659496 7.54810447,15.0659496 C9.85571932,15.0659496 11.1002756,13.5611254 11.1002756,10.9147753 L11.1002756,0.329245156 L15.041241,0.329245156 L15.041241,11.2261182 C15.041241,15.5589092 12.3966237,18.8019999 7.54810447,18.8019999 C2.69958527,18.8019999 0.0549679043,15.5589092 0.0549679043,11.2261182 Z M23.804927,15.0140591 C25.4902637,15.0140591 26.4495444,14.2357017 26.4495444,12.7308775 C26.4495444,11.2261182 25.4902637,10.4477609 23.804927,10.4477609 L21.6270183,10.4477609 L21.6270183,15.0140591 L23.804927,15.0140591 Z M23.701214,7.6457393 C24.919842,7.6457393 25.7495463,6.9452177 25.7495463,5.72579119 C25.7495463,4.50636469 24.919842,3.80584309 23.701214,3.80584309 L21.6270183,3.80584309 L21.6270183,7.6457393 L23.701214,7.6457393 Z M17.6859232,0.329245156 L23.7271422,0.329245156 C27.2273921,0.329245156 29.5350069,2.01568606 29.5350069,4.71392665 C29.5350069,6.76360098 28.5756614,8.00890787 27.1496073,8.6056485 C29.0682983,9.33211535 30.3905746,10.6553228 30.3905746,13.094111 C30.3905746,16.2334856 27.927455,18.490657 23.9604965,18.490657 L17.6859232,18.490657 L17.6859232,0.329245156 Z M32.3611869,18.490657 L32.3611869,0.329245156 L36.3022171,0.329245156 L36.3022171,18.490657 L32.3611869,18.490657 Z M38.532112,14.8064971 L41.6693663,12.4714251 C42.2397879,14.1059755 43.7176337,15.1178401 45.1955444,15.1178401 C46.4919572,15.1178401 47.4253744,14.4173185 47.4253744,13.2497824 C47.4253744,12.1600822 46.7253115,11.4855058 44.1324858,10.5515419 C41.3322989,9.53967731 39.2581032,8.13863409 39.2581032,5.12905057 C39.2581032,2.22318316 41.6693663,0.0179022189 45.1696161,0.0179022189 C47.9439396,0.0179022189 50.0959201,1.13354774 51.1071221,3.33882868 L47.9698678,5.51822924 C47.3735179,4.16907651 46.4401007,3.41666441 45.0140466,3.41666441 C43.8214116,3.41666441 42.9398508,4.06529553 42.9398508,4.99932434 C42.9398508,6.06307938 43.9251246,6.71171049 46.6475267,7.67168455 C49.7588527,8.76131996 51.3664047,10.1623632 51.3664047,12.9643847 C51.3664047,16.7263804 48.488433,18.8019999 45.0918313,18.8019999 C41.9545771,18.8019999 39.543314,17.4009567 38.532112,14.8064971 Z M67.8043361,9.40995108 C67.8043361,6.14091511 65.7300755,3.75401746 62.5670875,3.75401746 C60.7261812,3.75401746 59.3520485,4.4544742 58.5223442,5.36255777 L59.1446224,5.98524364 C58.1852769,6.78948137 57.3297093,7.90519175 57.3297093,9.90291073 C57.3297093,12.6530418 59.2742637,15.0659496 62.5670875,15.0659496 C65.7300755,15.0659496 67.8043361,12.6789871 67.8043361,9.40995108 Z M71.7972876,9.40995108 C71.7972876,14.7546066 67.9599056,18.8019999 62.5670875,18.8019999 C57.0444336,18.8019999 53.3367577,14.8324424 53.3367577,10.032637 C53.3367577,6.91920759 54.5553858,4.66203616 56.3443707,3.18315721 L55.7221573,2.5605362 C57.0962901,1.13354774 59.611331,0.0179022189 62.5670875,0.0179022189 C67.9599056,0.0179022189 71.7972876,4.11718602 71.7972876,9.40995108 Z M78.0719257,4.06529553 L78.0719257,8.24241507 L85.772618,8.24241507 L85.772618,11.2520635 L78.0719257,11.2520635 L78.0719257,18.490657 L74.1308307,18.490657 L74.1308307,0.329245156 L86.5504657,0.329245156 L86.5504657,4.06529553 L78.0719257,4.06529553 Z M102.70377,4.06529553 L97.6218313,4.06529553 L97.6218313,18.490657 L93.6807363,18.490657 L93.6807363,4.06529553 L88.5728697,4.06529553 L88.5728697,0.329245156 L102.70377,0.329245156 L102.70377,4.06529553 Z M5.10618125,37.6393503 C6.91234361,37.6393503 8.04955695,36.5237048 8.04955695,34.961801 C8.04955695,33.3998973 6.91234361,32.2843166 5.10618125,32.2843166 L2.05137885,32.2843166 L2.05137885,37.6393503 L5.10618125,37.6393503 Z M4.79406986,30.6331613 C6.4663776,30.6331613 7.49209943,29.7853355 7.49209943,28.2456798 C7.49209943,26.7061539 6.4663776,25.8583282 4.79406986,25.8583282 L2.05137885,25.8583282 L2.05137885,30.6331613 L4.79406986,30.6331613 Z M1.66977543e-13,23.9394179 L4.72717495,23.9394179 C7.75967904,23.9394179 9.49894651,25.7021378 9.49894651,27.933364 C9.49894651,29.696019 8.45092637,30.8562904 7.40290623,31.3694873 C8.94142417,31.9941839 10.1009358,33.0428907 10.1009358,35.1403043 C10.1009358,37.6393503 7.98266205,39.5581957 4.88326306,39.5581957 L1.66977543e-13,39.5581957 L1.66977543e-13,23.9394179 Z M22.2089132,37.6393503 L22.2089132,39.5581957 L12.1525091,39.5581957 L12.1525091,23.9394179 L14.2039528,23.9394179 L14.2039528,37.6393503 L22.2089132,37.6393503 Z M23.7252624,33.6454042 L23.7252624,23.9394179 L25.7766413,23.9394179 L25.7766413,33.4222102 C25.7766413,36.4121402 27.4267155,37.9070404 29.7679723,37.9070404 C32.1092291,37.9070404 33.7593033,36.4121402 33.7593033,33.4222102 L33.7593033,23.9394179 L35.8106822,23.9394179 L35.8106822,33.6454042 C35.8106822,37.3269047 33.4917237,39.8259506 29.7679723,39.8259506 C26.0442209,39.8259506 23.7252624,37.3269047 23.7252624,33.6454042 Z M48.3199641,37.6393503 L48.3199641,39.5581957 L38.2636249,39.5581957 L38.2636249,23.9394179 L48.1862391,23.9394179 L48.1862391,25.8583282 L40.3150686,25.8583282 L40.3150686,30.9009162 L47.4280969,30.9009162 L47.4280969,32.5966974 L40.3150686,32.5966974 L40.3150686,37.6393503 L48.3199641,37.6393503 Z M60.9183744,37.6393503 C62.724472,37.6393503 63.8616853,36.5237048 63.8616853,34.961801 C63.8616853,33.3998973 62.724472,32.2843166 60.9183744,32.2843166 L57.8635072,32.2843166 L57.8635072,37.6393503 L60.9183744,37.6393503 Z M60.6061334,30.6331613 C62.278506,30.6331613 63.3042278,29.7853355 63.3042278,28.2456798 C63.3042278,26.7061539 62.278506,25.8583282 60.6061334,25.8583282 L57.8635072,25.8583282 L57.8635072,30.6331613 L60.6061334,30.6331613 Z M55.8121284,23.9394179 L60.5392385,23.9394179 C63.5717426,23.9394179 65.3113342,25.7021378 65.3113342,27.933364 C65.3113342,29.696019 64.2629899,30.8562904 63.2149698,31.3694873 C64.7536174,31.9941839 65.9128697,33.0428907 65.9128697,35.1403043 C65.9128697,37.6393503 63.7947904,39.5581957 60.6953266,39.5581957 L55.8121284,39.5581957 L55.8121284,23.9394179 Z M71.3091882,34.8724845 L66.4042102,23.9394179 L68.5445878,23.9394179 L72.2458464,32.3735034 L72.3800252,32.3735034 L75.9030271,23.9394179 L77.9766394,23.9394179 L71.4206797,39.5581957 L69.3470673,39.5581957 L71.3091882,34.8724845 Z M90.7534361,25.8136375 L86.1375582,25.8136375 L86.1375582,39.5581957 L84.0866331,39.5581957 L84.0866331,25.8136375 L79.4487162,25.8136375 L79.4487162,23.9394179 L90.7534361,23.9394179 L90.7534361,25.8136375 Z M102.950736,37.6393503 L102.950736,39.5581957 L92.8938137,39.5581957 L92.8938137,23.9394179 L102.816558,23.9394179 L102.816558,25.8583282 L94.945387,25.8583282 L94.945387,30.9009162 L102.058804,30.9009162 L102.058804,32.5966974 L94.945387,32.5966974 L94.945387,37.6393503 L102.950736,37.6393503 Z" id="Combined-Shape"></path>
                    </g>
                </g>
            </g>
        </g>
    </g>
</svg>