<svg width="234" height="26" viewBox="0 0 234 26" fill="none" xmlns="http://www.w3.org/2000/svg">
<g clip-path="url(#clip0_741_3282)">
<path d="M0 25.1918V0.144531H16.3002C19.8503 0.144531 22.4698 2.91156 22.691 6.27554C22.8034 8.03127 22.8034 9.45341 22.691 11.2091C22.4663 14.5731 19.8503 17.3401 16.3002 17.3401H6.35574V25.1918H0ZM15.3275 5.1905H6.35574V12.2942H15.3275C15.7384 12.2942 16.2264 11.9571 16.2616 11.5462C16.3739 9.56577 16.3739 7.9189 16.2616 5.93844C16.2229 5.5276 15.7384 5.1905 15.3275 5.1905Z" fill="#FF0000"/>
<path d="M25.831 19.0226C25.6449 14.6474 25.6449 10.6864 25.831 6.31116C25.982 2.94719 28.8227 0.331152 32.1867 0.141534C35.477 -0.0445737 38.8023 -0.0445737 42.0925 0.141534C45.4565 0.327641 48.2973 2.94368 48.4483 6.31116C48.6344 10.6864 48.6344 14.6474 48.4483 19.0226C48.2973 22.7237 45.4565 25.0027 42.0925 25.1923C38.8023 25.3784 35.477 25.3784 32.1867 25.1923C28.8227 25.0062 25.982 22.5376 25.831 19.0226ZM41.3446 5.19101C38.5425 5.07864 35.7368 5.07864 32.9347 5.19101C32.5238 5.19101 32.1867 5.52811 32.1867 5.93895C32.0744 10.4266 32.0744 14.9107 32.1867 19.3984C32.1867 19.8092 32.5238 20.1463 32.9347 20.1463C35.7368 20.2587 38.5425 20.2587 41.3446 20.1463C41.7554 20.1463 42.0925 19.8092 42.0925 19.3984C42.2049 14.9107 42.2049 10.4266 42.0925 5.93895C42.0925 5.52811 41.7554 5.19101 41.3446 5.19101Z" fill="#FF0000"/>
<path d="M66.8757 15.2087H57.9426C54.5786 15.2087 51.9626 12.9297 51.5868 9.86425C51.4007 8.36836 51.4007 6.98485 51.5868 5.48897C51.9591 2.42347 54.5786 0.144531 57.9426 0.144531H73.1964V5.1905H58.6905C58.2797 5.1905 57.9812 5.5276 57.9426 5.93844C57.8302 7.09722 57.8302 8.18226 57.9426 9.34104C57.9812 9.75188 58.2797 10.089 58.6905 10.089H67.6237C70.9876 10.089 73.6037 12.3679 73.9794 15.4334C74.1655 16.9644 74.1655 18.3128 73.9794 19.8438C73.6072 22.9093 70.9876 25.1882 67.6237 25.1882H51.9591V20.1423H66.8757C67.2866 20.1423 67.585 19.8052 67.6237 19.3943C67.736 18.2356 67.736 17.1154 67.6237 15.9566C67.585 15.5458 67.2866 15.2087 66.8757 15.2087Z" fill="#FF0000"/>
<path d="M97.98 5.1905H89.9423V25.1918H83.5866V5.1905H75.5488V0.144531H97.98V5.1905Z" fill="#FF0000"/>
<path d="M106.576 12.2942H115.548C115.959 12.2942 116.447 11.9571 116.482 11.5462C116.594 9.56577 116.594 7.9189 116.482 5.93844C116.443 5.5276 115.959 5.1905 115.548 5.1905H106.576V12.2942ZM100.22 25.1918V0.144531H116.52C120.071 0.144531 122.69 2.91156 122.911 6.27554C123.024 8.03126 123.024 9.45341 122.911 11.2091C122.76 13.6777 121.303 15.8056 119.172 16.7783L123.059 24.8547V25.564H116.292L112.254 17.3401H106.573V25.1918H100.217H100.22ZM118.613 15.623L119.175 16.7818C118.389 17.154 117.493 17.3436 116.52 17.3436H112.258L111.324 15.4369L118.613 15.623Z" fill="#FF0000"/>
<path d="M147.924 5.1905H132.41V10.1241H147.176V15.1736H132.41V20.1423H147.924V25.1918H126.055V0.144531H147.924V5.1905Z" fill="#FF0000"/>
<path d="M150.912 25.564V0.144531H167.174C170.538 0.144531 173.417 2.94667 173.529 6.31416C173.68 10.6894 173.68 15.0226 173.529 19.3979C173.417 23.0989 170.538 25.5675 167.174 25.5675H150.912V25.564ZM166.426 5.1905H157.268V20.518H166.426C166.837 20.518 167.174 20.1809 167.174 19.7701C167.286 15.1736 167.286 10.5349 167.174 5.93844C167.174 5.5276 166.837 5.1905 166.426 5.1905Z" fill="#FF0000"/>
<path d="M189.296 6.4093H186.388C185.71 6.4093 185.142 6.26534 184.678 5.9774C184.215 5.68946 183.87 5.31724 183.646 4.86075C183.421 4.40426 183.309 3.9267 183.309 3.42808C183.309 2.87327 183.431 2.36762 183.684 1.91113C183.934 1.45464 184.292 1.09296 184.759 0.826087C185.226 0.559217 185.767 0.425781 186.388 0.425781H189.296V1.70746H186.539C186.062 1.70746 185.672 1.86548 185.37 2.178C185.068 2.49052 184.917 2.89434 184.917 3.38594C184.917 3.70548 184.987 4.00045 185.124 4.26732C185.261 4.53419 185.454 4.74487 185.7 4.89587C185.946 5.05037 186.227 5.12411 186.539 5.12411H189.296V6.40579V6.4093Z" fill="white"/>
<path d="M190.268 0.425781H193.856C194.583 0.425781 195.163 0.618911 195.591 1.00868C196.023 1.39845 196.237 1.94273 196.237 2.64853C196.237 3.08395 196.153 3.45617 195.981 3.76869C195.809 4.08121 195.563 4.3235 195.243 4.49556L196.3 6.37419V6.40579H194.453L193.695 4.82564H191.816V6.40579H190.268V0.425781ZM191.816 3.55449L193.73 3.54396C194.021 3.54396 194.246 3.45968 194.404 3.28762C194.562 3.11556 194.639 2.90136 194.639 2.64853C194.639 2.39571 194.559 2.17098 194.397 1.98487C194.236 1.79876 194.014 1.70746 193.73 1.70746H191.816V3.55449Z" fill="white"/>
<path d="M202.566 0.425781V1.70746H198.773V2.77495H202.299V4.05663H198.773V5.12411H202.566V6.40579H197.225V0.425781H202.566Z" fill="white"/>
<path d="M203.521 6.4093L206.106 0.425781H207.911L210.509 6.4093H208.81L208.329 5.2435H205.702L205.221 6.4093H203.521ZM207.795 3.96182L207.015 2.05861L206.236 3.96182H207.795Z" fill="white"/>
<path d="M210.119 0.425781H216.542V1.70746H214.105V6.4093H212.556V1.70746H210.119V0.425781Z" fill="white"/>
<path d="M218.957 6.4093H217.408V0.425781H218.957V6.4093Z" fill="white"/>
<path d="M222.311 6.4093L219.758 0.425781H221.447L223.115 4.59388L224.793 0.425781H226.503L223.95 6.4093H222.314H222.311Z" fill="white"/>
<path d="M232.62 0.425781V1.70746H228.828V2.77495H232.353V4.05663H228.828V5.12411H232.62V6.40579H227.279V0.425781H232.62Z" fill="white"/>
<path d="M183.056 15.8449L185.64 9.86133H187.445L190.04 15.8449H188.341L187.86 14.679H185.229L184.748 15.8449H183.049H183.056ZM187.329 13.3974L186.55 11.4942L185.77 13.3974H187.329Z" fill="white"/>
<path d="M190.402 9.86405H191.951V13.0173C191.951 13.5511 192.063 13.9514 192.288 14.2147C192.513 14.4781 192.892 14.6115 193.426 14.6115C193.959 14.6115 194.339 14.4816 194.563 14.2147C194.788 13.9514 194.901 13.5511 194.901 13.0173V9.85352H196.449V13.0173C196.449 14.9697 195.441 15.9459 193.426 15.9459C191.41 15.9459 190.402 14.9697 190.402 13.0173V9.86405Z" fill="white"/>
<path d="M201.039 15.8449H197.682V9.86133H201.039C201.657 9.86133 202.201 9.99476 202.668 10.2616C203.135 10.5285 203.493 10.8902 203.742 11.3467C203.992 11.8032 204.115 12.3088 204.115 12.8636C204.115 13.3623 204.002 13.8398 203.778 14.2963C203.553 14.7528 203.209 15.125 202.745 15.4129C202.282 15.7009 201.713 15.8449 201.035 15.8449H201.039ZM199.234 14.5632H200.888C201.2 14.5632 201.481 14.4859 201.727 14.3349C201.973 14.1804 202.166 13.9732 202.303 13.7064C202.44 13.4395 202.51 13.1445 202.51 12.825C202.51 12.3334 202.359 11.9296 202.057 11.6171C201.755 11.3045 201.365 11.1465 200.888 11.1465H199.234V14.5667V14.5632Z" fill="white"/>
<path d="M206.754 15.8449H205.205V9.86133H206.754V15.8449Z" fill="white"/>
<path d="M208.26 11.2479C208.545 10.7808 208.952 10.4192 209.482 10.1593C210.013 9.89946 210.631 9.76953 211.336 9.76953C212.042 9.76953 212.66 9.89946 213.191 10.1593C213.721 10.4192 214.128 10.7808 214.412 11.2479C214.697 11.7149 214.841 12.2486 214.841 12.8561C214.841 13.4636 214.697 13.9973 214.412 14.4644C214.128 14.9314 213.721 15.2931 213.191 15.5529C212.66 15.8127 212.042 15.9427 211.336 15.9427C210.631 15.9427 210.013 15.8127 209.482 15.5529C208.952 15.2931 208.545 14.9314 208.26 14.4644C207.976 13.9973 207.832 13.4636 207.832 12.8561C207.832 12.2486 207.976 11.7149 208.26 11.2479ZM212.316 14.3836C212.604 14.2326 212.829 14.0254 212.994 13.7585C213.159 13.4917 213.24 13.1897 213.24 12.8561C213.24 12.5225 213.159 12.2205 212.994 11.9537C212.829 11.6868 212.604 11.4761 212.316 11.3286C212.028 11.1776 211.702 11.1039 211.336 11.1039C210.971 11.1039 210.648 11.1776 210.36 11.3286C210.072 11.4796 209.844 11.6868 209.683 11.9537C209.518 12.2205 209.437 12.5225 209.437 12.8561C209.437 13.1897 209.518 13.4917 209.683 13.7585C209.848 14.0254 210.072 14.2361 210.36 14.3836C210.648 14.5346 210.975 14.6083 211.336 14.6083C211.698 14.6083 212.025 14.5346 212.316 14.3836Z" fill="white"/>
<path d="M187.649 24.0011C188.053 24.0011 188.256 23.8185 188.256 23.4568C188.256 23.2847 188.204 23.1548 188.102 23.067C188 22.9792 187.845 22.9336 187.649 22.9336H185.254C184.671 22.9336 184.2 22.7791 183.842 22.4736C183.488 22.1681 183.309 21.7256 183.309 21.1498C183.309 20.5739 183.484 20.1104 183.839 19.7873C184.193 19.4643 184.664 19.3027 185.254 19.3027H189.369V20.5844H185.524C185.324 20.5844 185.173 20.6301 185.071 20.7179C184.969 20.8056 184.917 20.9356 184.917 21.1076C184.917 21.4728 185.12 21.6519 185.528 21.6519H187.923C188.513 21.6519 188.987 21.8064 189.338 22.1119C189.689 22.4174 189.868 22.8598 189.868 23.4357C189.868 24.0116 189.689 24.4646 189.327 24.7911C188.966 25.1177 188.499 25.2827 187.923 25.2827H183.639V24.0011H187.656H187.649Z" fill="white"/>
<path d="M196.241 19.2984V20.5801H192.449V21.6476H195.974V22.9293H192.449V23.9968H196.241V25.2784H190.9V19.2949H196.241V19.2984Z" fill="white"/>
<path d="M197.432 19.2984H201.02C201.747 19.2984 202.327 19.4916 202.755 19.8813C203.187 20.2711 203.401 20.8154 203.401 21.5212C203.401 21.9566 203.317 22.3288 203.145 22.6413C202.973 22.9539 202.727 23.1962 202.407 23.3682L203.464 25.2468V25.2784H201.617L200.859 23.6983H198.98V25.2784H197.432V19.2949V19.2984ZM198.98 22.4271L200.894 22.4166C201.185 22.4166 201.41 22.3323 201.568 22.1603C201.726 21.9882 201.803 21.774 201.803 21.5212C201.803 21.2684 201.723 21.0436 201.561 20.8575C201.4 20.6714 201.178 20.5801 200.894 20.5801H198.98V22.4271Z" fill="white"/>
<path d="M206.455 25.2824L203.902 19.2988H205.591L207.259 23.4669L208.938 19.2988H210.648L208.095 25.2824H206.459H206.455Z" fill="white"/>
<path d="M212.984 25.2824H211.436V19.2988H212.984V25.2824Z" fill="white"/>
<path d="M220.024 25.2824H217.117C216.439 25.2824 215.87 25.1384 215.407 24.8504C214.943 24.5625 214.599 24.1903 214.374 23.7338C214.149 23.2773 214.037 22.7998 214.037 22.3011C214.037 21.7463 214.16 21.2407 214.413 20.7842C214.662 20.3277 215.02 19.966 215.487 19.6991C215.954 19.4323 216.499 19.2988 217.117 19.2988H220.024V20.5805H217.268C216.79 20.5805 216.4 20.7385 216.098 21.051C215.796 21.3636 215.645 21.7674 215.645 22.259C215.645 22.5785 215.716 22.8735 215.853 23.1404C215.993 23.4072 216.183 23.6179 216.428 23.7689C216.674 23.9199 216.955 23.9972 217.268 23.9972H220.024V25.2788V25.2824Z" fill="white"/>
<path d="M226.411 19.2984V20.5801H222.619V21.6476H226.144V22.9293H222.619V23.9968H226.411V25.2784H221.07V19.2949H226.411V19.2984Z" fill="white"/>
<path d="M231.787 24.0011C232.191 24.0011 232.395 23.8185 232.395 23.4568C232.395 23.2847 232.342 23.1548 232.24 23.067C232.139 22.9792 231.984 22.9336 231.787 22.9336H229.393C228.81 22.9336 228.339 22.7791 227.981 22.4736C227.626 22.1681 227.447 21.7256 227.447 21.1498C227.447 20.5739 227.623 20.1104 227.977 19.7873C228.332 19.4643 228.803 19.3027 229.393 19.3027H233.508V20.5844H229.663C229.463 20.5844 229.312 20.6301 229.21 20.7179C229.108 20.8056 229.056 20.9356 229.056 21.1076C229.056 21.4728 229.259 21.6519 229.667 21.6519H232.061C232.651 21.6519 233.125 21.8064 233.476 22.1119C233.828 22.4174 234.007 22.8598 234.007 23.4357C234.007 24.0116 233.828 24.4646 233.466 24.7911C233.104 25.1177 232.637 25.2827 232.061 25.2827H227.777V24.0011H231.794H231.787Z" fill="white"/>
</g>
<defs>
<clipPath id="clip0_741_3282">
<rect width="234" height="25.5599" fill="white" transform="translate(0 0.00390625)"/>
</clipPath>
</defs>
</svg>
