<svg width="37" height="48" viewBox="0 0 37 48" fill="none" xmlns="http://www.w3.org/2000/svg">
<path d="M22.9504 37.5391H14.2575C14.0053 37.5391 13.8008 37.7435 13.8008 37.9958V41.4866C13.8008 41.7388 14.0053 41.9433 14.2575 41.9433H22.9504C23.2026 41.9433 23.4071 41.7388 23.4071 41.4866V37.9958C23.4071 37.7435 23.2026 37.5391 22.9504 37.5391Z" fill="black"/>
<path d="M30.0272 44.7109L7.18732 44.7109C3.77524 44.7109 1.00359 41.9393 1.00359 38.5272V32.9682C1.00359 32.6269 1.28181 32.3487 1.62301 32.3487H35.5915C35.9327 32.3487 36.2109 32.6269 36.2109 32.9682V38.5272C36.2109 41.9393 33.4393 44.7109 30.0272 44.7109Z" stroke="black" stroke-miterlimit="10"/>
<path d="M11.327 25.4741L11.5999 26.9177C11.6367 27.1224 11.8677 27.2432 12.0671 27.1592L13.0488 26.7602C13.264 26.671 13.5107 26.818 13.5212 27.0437L13.6052 28.4558C13.6157 28.6762 13.8467 28.818 14.0619 28.7445L16.0566 28.0516C16.1879 28.0043 16.3348 28.0411 16.4293 28.1408L17.6419 29.4584L18.5133 28.9125C18.6236 28.8442 18.76 28.8442 18.8703 28.902L19.7837 29.4111L20.6393 28.2195C20.7285 28.0988 20.886 28.0463 21.033 28.0936L23.2797 28.8337C23.495 28.902 23.7207 28.7602 23.7312 28.545L23.8152 27.007C23.8257 26.7812 24.0724 26.6342 24.2929 26.7287L25.3847 27.1907C25.5947 27.2799 25.8309 27.1487 25.8624 26.9335L26.0724 25.4059C26.0986 25.2169 26.2876 25.0909 26.4871 25.1329L27.1065 25.2642C27.3217 25.3114 27.5265 25.1487 27.5212 24.9335L27.411 21.5476C27.4057 21.3639 27.5579 21.2117 27.7522 21.2117H27.8834C28.1301 21.2117 28.2929 20.9702 28.1984 20.755L27.243 18.65C27.159 18.461 27.2692 18.251 27.4792 18.2038L27.7469 18.1461C27.9884 18.0936 28.0934 17.8153 27.9411 17.6264L26.2509 15.5424C26.0934 15.3482 26.2089 15.0594 26.4661 15.0227C26.7758 14.9755 26.8598 14.587 26.5973 14.4243L24.9648 13.4216C24.739 13.2799 24.76 12.9597 25.0068 12.8495L25.4372 12.6605L22.4503 11.6579C22.2509 11.5896 22.1616 11.3639 22.2666 11.1907L22.6131 10.6132L18.8283 11.3797C18.7705 11.3902 18.7076 11.3902 18.6498 11.3692L15.4845 10.3613C15.2062 10.272 14.949 10.5398 15.0645 10.797L15.2167 11.1487C15.2955 11.3272 15.1905 11.5371 14.9963 11.5896L12.5238 12.2563C12.2456 12.3298 12.1879 12.6867 12.4293 12.839L12.5711 12.9282C12.7863 13.0647 12.7705 13.3692 12.5448 13.4846L10.6866 14.4453C10.4556 14.566 10.4451 14.8757 10.6656 15.0069L11.0278 15.2274C11.2167 15.3429 11.243 15.5949 11.0803 15.7419L9.31123 17.3429C9.13275 17.5004 9.18524 17.7839 9.40572 17.8783L10.0199 18.1408C10.2036 18.2195 10.2719 18.4295 10.1774 18.5975L9.04351 20.5398C8.92802 20.7392 9.05401 20.986 9.28498 21.0227L9.87291 21.1119C10.0619 21.1434 10.1879 21.3114 10.1564 21.4899L9.4897 25.0437C9.44771 25.2747 9.66293 25.4689 9.89915 25.4216L10.9228 25.2064C11.1118 25.1644 11.2955 25.2852 11.3322 25.4689L11.327 25.4741Z" stroke="black" stroke-linecap="round" stroke-linejoin="round"/>
<path d="M18.6469 20.6998C20.0095 20.6998 21.1141 19.6022 21.1141 18.2483C21.1141 16.8944 20.0095 15.7969 18.6469 15.7969C17.2843 15.7969 16.1797 16.8944 16.1797 18.2483C16.1797 19.6022 17.2843 20.6998 18.6469 20.6998Z" stroke="black" stroke-linecap="round" stroke-linejoin="round"/>
<path d="M18.6461 19.4379C19.3071 19.4379 19.8429 18.9044 19.8429 18.2463C19.8429 17.5882 19.3071 17.0547 18.6461 17.0547C17.9851 17.0547 17.4492 17.5882 17.4492 18.2463C17.4492 18.9044 17.9851 19.4379 18.6461 19.4379Z" fill="black"/>
<path d="M13.3711 22.2555C13.3711 22.2555 18.5469 27.9825 24.3475 22.2188" stroke="black" stroke-miterlimit="10" stroke-linecap="round"/>
<path d="M15.332 23.3858L16.4186 22.4356C16.5131 22.3516 16.6601 22.4199 16.6601 22.5406L16.6391 24.0104" stroke="black" stroke-miterlimit="10" stroke-linecap="round"/>
<path d="M22.159 23.5761L21.0462 22.5997C20.9517 22.5157 20.8047 22.5839 20.8047 22.7047L20.8257 24.1588" stroke="black" stroke-miterlimit="10" stroke-linecap="round"/>
<path d="M34.5795 7.73438H2.63198C2.41455 7.73438 2.23828 7.91064 2.23828 8.12808V31.9548C2.23828 32.1723 2.41455 32.3485 2.63198 32.3485H34.5795C34.7969 32.3485 34.9732 32.1723 34.9732 31.9548V8.12808C34.9732 7.91064 34.7969 7.73438 34.5795 7.73438Z" stroke="black" stroke-miterlimit="10"/>
<path d="M14.8473 46.9922H6.1911C5.98113 46.9922 5.8079 46.819 5.8079 46.609V44.7035H15.2305V46.609C15.2305 46.819 15.0572 46.9922 14.8473 46.9922Z" stroke="black" stroke-miterlimit="10" stroke-linecap="round"/>
<path d="M31.0816 46.9922H22.4255C22.2155 46.9922 22.0423 46.819 22.0423 46.609V44.7035H31.4648V46.609C31.4648 46.819 31.2916 46.9922 31.0816 46.9922Z" stroke="black" stroke-miterlimit="10" stroke-linecap="round"/>
<path d="M1 34.8125H36.2126" stroke="black" stroke-miterlimit="10" stroke-linecap="round"/>
<path d="M5.56168 1H31.6509C34.1706 1 36.2126 3.04199 36.2126 5.56168V7.26772C36.2126 7.51968 36.0079 7.72441 35.7559 7.72441H1.45669C1.20472 7.72441 1 7.51968 1 7.26772V5.56168C1 3.04199 3.04199 1 5.56168 1Z" stroke="black" stroke-miterlimit="10"/>
<path d="M6.96484 4.35938H30.2509" stroke="black" stroke-miterlimit="10" stroke-linecap="round"/>
</svg>
