<svg width="45" height="61" viewBox="0 0 45 61" fill="none" xmlns="http://www.w3.org/2000/svg">
<path d="M3.95351 57.988C4.62467 57.988 5.16874 57.4468 5.16874 56.7791C5.16874 56.1115 4.62467 55.5703 3.95351 55.5703C3.28236 55.5703 2.73828 56.1115 2.73828 56.7791C2.73828 57.4468 3.28236 57.988 3.95351 57.988Z" fill="#FF0000"/>
<path d="M40.391 57.988C41.0622 57.988 41.6062 57.4468 41.6062 56.7791C41.6062 56.1115 41.0622 55.5703 40.391 55.5703C39.7199 55.5703 39.1758 56.1115 39.1758 56.7791C39.1758 57.4468 39.7199 57.988 40.391 57.988Z" fill="#FF0000"/>
<path d="M38.9123 30.3435L38.8164 15.7031" stroke="#FF0000" stroke-width="0.960279" stroke-miterlimit="10" stroke-linecap="round"/>
<path d="M38.8441 25.0703L32.1155 28.134C31.6614 28.3386 31.3672 28.7992 31.3672 29.298V30.3598" stroke="#FF0000" stroke-width="0.960279" stroke-miterlimit="10" stroke-linecap="round"/>
<path d="M38.8669 10.5428C41.5268 10.5428 43.6831 8.40654 43.6831 5.77138C43.6831 3.13622 41.5268 1 38.8669 1C36.207 1 34.0508 3.13622 34.0508 5.77138C34.0508 8.40654 36.207 10.5428 38.8669 10.5428Z" stroke="#FF0000" stroke-width="0.960279" stroke-miterlimit="10" stroke-linecap="round"/>
<path d="M39.5284 15.1484H38.2044C37.8526 15.1484 37.5648 14.8606 37.5648 14.5088V10.5497H40.168V14.5088C40.168 14.8606 39.8802 15.1484 39.5284 15.1484Z" stroke="#FF0000" stroke-width="0.960279" stroke-linecap="round" stroke-linejoin="round"/>
<path d="M38.8055 22.6607C41.151 22.6607 43.0524 22.0651 43.0524 21.3304C43.0524 20.5956 41.151 20 38.8055 20C36.46 20 34.5586 20.5956 34.5586 21.3304C34.5586 22.0651 36.46 22.6607 38.8055 22.6607Z" stroke="#FF0000" stroke-width="0.960279" stroke-miterlimit="10" stroke-linecap="round"/>
<path d="M38.8055 19.9967C41.151 19.9967 43.0524 19.401 43.0524 18.6663C43.0524 17.9316 41.151 17.3359 38.8055 17.3359C36.46 17.3359 34.5586 17.9316 34.5586 18.6663C34.5586 19.401 36.46 19.9967 38.8055 19.9967Z" stroke="#FF0000" stroke-width="0.960279" stroke-miterlimit="10" stroke-linecap="round"/>
<path d="M22.0933 14.2924C25.5621 14.2924 28.3742 11.5004 28.3742 8.05637C28.3742 4.61229 25.5621 1.82031 22.0933 1.82031C18.6245 1.82031 15.8125 4.61229 15.8125 8.05637C15.8125 11.5004 18.6245 14.2924 22.0933 14.2924Z" stroke="#FF0000" stroke-width="0.960279" stroke-linecap="round" stroke-linejoin="round"/>
<path d="M22.1 11.8235C24.1982 11.8235 25.8992 10.1369 25.8992 8.05628C25.8992 5.9757 24.1982 4.28906 22.1 4.28906C20.0017 4.28906 18.3008 5.9757 18.3008 8.05628C18.3008 10.1369 20.0017 11.8235 22.1 11.8235Z" fill="#FF0000"/>
<path d="M43.1595 30.3516H1.24678C0.946528 30.3516 0.703125 30.595 0.703125 30.8952V59.5235C0.703125 59.8238 0.946528 60.0672 1.24678 60.0672H43.1595C43.4597 60.0672 43.7031 59.8238 43.7031 59.5235V30.8952C43.7031 30.595 43.4597 30.3516 43.1595 30.3516Z" stroke="#FF0000" stroke-width="0.960279" stroke-miterlimit="10" stroke-linecap="round"/>
<path d="M1.13281 45.5H43.5444" stroke="#FF0000" stroke-width="0.960279" stroke-miterlimit="10" stroke-linecap="round"/>
<path d="M21.8416 51.75H5.64062" stroke="#FF0000" stroke-width="0.960279" stroke-miterlimit="10" stroke-linecap="round"/>
<path d="M43.5745 36.5469H27.3672" stroke="#FF0000" stroke-width="0.960279" stroke-miterlimit="10" stroke-linecap="round"/>
<path d="M18.52 40.0391H7.85156" stroke="#FF0000" stroke-width="0.960279" stroke-miterlimit="10" stroke-linecap="round"/>
<path d="M41.4536 53.75H30.7852" stroke="#FF0000" stroke-width="0.960279" stroke-miterlimit="10" stroke-linecap="round"/>
<path d="M3.95351 35.3161C4.62467 35.3161 5.16874 34.7749 5.16874 34.1073C5.16874 33.4397 4.62467 32.8984 3.95351 32.8984C3.28236 32.8984 2.73828 33.4397 2.73828 34.1073C2.73828 34.7749 3.28236 35.3161 3.95351 35.3161Z" fill="#FF0000"/>
<path d="M40.391 35.3161C41.0622 35.3161 41.6062 34.7749 41.6062 34.1073C41.6062 33.4397 41.0622 32.8984 40.391 32.8984C39.7199 32.8984 39.1758 33.4397 39.1758 34.1073C39.1758 34.7749 39.7199 35.3161 40.391 35.3161Z" fill="#FF0000"/>
<path d="M1.27876 26.5391H12.9706C13.2904 26.5391 13.5462 26.8013 13.5462 27.1147V30.3447H0.703125V27.1147C0.703125 26.7949 0.965359 26.5391 1.27876 26.5391Z" stroke="#FF0000" stroke-width="0.960279" stroke-miterlimit="10" stroke-linecap="round"/>
<path d="M22.0775 14.2812L21.9688 30.3479" stroke="#FF0000" stroke-width="0.960279" stroke-miterlimit="10" stroke-linecap="round"/>
<path d="M22.0168 26.8073C24.9946 26.8073 27.4086 26.1229 27.4086 25.2786C27.4086 24.4344 24.9946 23.75 22.0168 23.75C19.039 23.75 16.625 24.4344 16.625 25.2786C16.625 26.1229 19.039 26.8073 22.0168 26.8073Z" stroke="#FF0000" stroke-width="0.960279" stroke-miterlimit="10" stroke-linecap="round"/>
<path d="M22.0168 23.7526C24.9946 23.7526 27.4086 23.0682 27.4086 22.2239C27.4086 21.3797 24.9946 20.6953 22.0168 20.6953C19.039 20.6953 16.625 21.3797 16.625 22.2239C16.625 23.0682 19.039 23.7526 22.0168 23.7526Z" stroke="#FF0000" stroke-width="0.960279" stroke-miterlimit="10" stroke-linecap="round"/>
<path d="M22.0168 20.7057C24.9946 20.7057 27.4086 20.0213 27.4086 19.1771C27.4086 18.3328 24.9946 17.6484 22.0168 17.6484C19.039 17.6484 16.625 18.3328 16.625 19.1771C16.625 20.0213 19.039 20.7057 22.0168 20.7057Z" stroke="#FF0000" stroke-width="0.960279" stroke-miterlimit="10" stroke-linecap="round"/>
</svg>
