<svg width="54" height="54" viewBox="0 0 54 54" fill="none" xmlns="http://www.w3.org/2000/svg">
<path d="M47.6799 1H31.6825C28.913 1 26.668 3.24506 26.668 6.01448V6.08603C26.668 8.85545 28.913 11.1005 31.6825 11.1005H47.6799C50.4493 11.1005 52.6944 8.85545 52.6944 6.08603V6.01448C52.6944 3.24506 50.4493 1 47.6799 1Z" stroke="#FF0000" stroke-width="0.894379" stroke-miterlimit="10" stroke-linecap="round"/>
<path d="M31.7109 1V11.1005" stroke="#FF0000" stroke-width="0.894379" stroke-miterlimit="10"/>
<path d="M47.6992 1V11.1005" stroke="#FF0000" stroke-width="0.894379" stroke-miterlimit="10"/>
<path d="M30.7351 3.50781H29.6797V4.43797H30.7351V3.50781Z" fill="#FF0000"/>
<path d="M30.7351 5.78125H29.6797V6.7114H30.7351V5.78125Z" fill="#FF0000"/>
<path d="M30.7351 7.91406H29.6797V8.84422H30.7351V7.91406Z" fill="#FF0000"/>
<path d="M28.9577 4.51562H27.9023V5.44578H28.9577V4.51562Z" fill="#FF0000"/>
<path d="M28.9577 6.64844H27.9023V7.57859H28.9577V6.64844Z" fill="#FF0000"/>
<path d="M48.5814 8.85156H49.6367V7.92141H48.5814V8.85156Z" fill="#FF0000"/>
<path d="M48.5814 6.57812H49.6367V5.64797H48.5814V6.57812Z" fill="#FF0000"/>
<path d="M48.5814 4.4375H49.6367V3.50735H48.5814V4.4375Z" fill="#FF0000"/>
<path d="M50.3626 7.85156H51.418V6.92141H50.3626V7.85156Z" fill="#FF0000"/>
<path d="M50.3626 5.71875H51.418V4.7886H50.3626V5.71875Z" fill="#FF0000"/>
<path d="M34.196 2.11719H33.1406V3.04734H34.196V2.11719Z" fill="#FF0000"/>
<path d="M34.196 4.46875H33.1406V5.3989H34.196V4.46875Z" fill="#FF0000"/>
<path d="M34.196 6.8125H33.1406V7.74265H34.196V6.8125Z" fill="#FF0000"/>
<path d="M34.196 9.15625H33.1406V10.0864H34.196V9.15625Z" fill="#FF0000"/>
<path d="M36.153 3.4375H35.0977V4.36765H36.153V3.4375Z" fill="#FF0000"/>
<path d="M36.153 5.71094H35.0977V6.64109H36.153V5.71094Z" fill="#FF0000"/>
<path d="M36.153 7.83594H35.0977V8.76609H36.153V7.83594Z" fill="#FF0000"/>
<path d="M38.6452 2.11719H37.5898V3.04734H38.6452V2.11719Z" fill="#FF0000"/>
<path d="M38.6452 4.46875H37.5898V5.3989H38.6452V4.46875Z" fill="#FF0000"/>
<path d="M38.6452 6.80469H37.5898V7.73484H38.6452V6.80469Z" fill="#FF0000"/>
<path d="M38.6452 9.16406H37.5898V10.0942H38.6452V9.16406Z" fill="#FF0000"/>
<path d="M41.1999 3.4375H40.1445V4.36765H41.1999V3.4375Z" fill="#FF0000"/>
<path d="M41.1999 5.71094H40.1445V6.64109H41.1999V5.71094Z" fill="#FF0000"/>
<path d="M41.1999 7.83594H40.1445V8.76609H41.1999V7.83594Z" fill="#FF0000"/>
<path d="M43.6921 2.11719H42.6367V3.04734H43.6921V2.11719Z" fill="#FF0000"/>
<path d="M43.6921 4.46875H42.6367V5.3989H43.6921V4.46875Z" fill="#FF0000"/>
<path d="M43.6921 6.80469H42.6367V7.73484H43.6921V6.80469Z" fill="#FF0000"/>
<path d="M43.6921 9.16406H42.6367V10.0942H43.6921V9.16406Z" fill="#FF0000"/>
<path d="M46.2624 3.42969H45.207V4.35984H46.2624V3.42969Z" fill="#FF0000"/>
<path d="M46.2624 5.71094H45.207V6.64109H46.2624V5.71094Z" fill="#FF0000"/>
<path d="M46.2624 7.84375H45.207V8.7739H46.2624V7.84375Z" fill="#FF0000"/>
<path d="M47.6799 16.9375H31.6825C28.913 16.9375 26.668 19.1826 26.668 21.952V22.0176C26.668 24.787 28.913 27.0321 31.6825 27.0321H47.6799C50.4493 27.0321 52.6944 24.787 52.6944 22.0176V21.952C52.6944 19.1826 50.4493 16.9375 47.6799 16.9375Z" stroke="#FF0000" stroke-width="0.894379" stroke-miterlimit="10" stroke-linecap="round"/>
<path d="M27.4102 19.375H51.9817" stroke="#FF0000" stroke-width="0.894379" stroke-miterlimit="10"/>
<path d="M27.4102 24.6406H51.9519" stroke="#FF0000" stroke-width="0.894379" stroke-miterlimit="10"/>
<path d="M26.6758 21.9844H52.6962" stroke="#FF0000" stroke-width="0.894379" stroke-miterlimit="10"/>
<path d="M30.1914 17.2578V26.7084" stroke="#FF0000" stroke-width="0.894379" stroke-miterlimit="10"/>
<path d="M33.6719 16.9297V27.0302" stroke="#FF0000" stroke-width="0.894379" stroke-miterlimit="10"/>
<path d="M36.832 16.9297V27.0302" stroke="#FF0000" stroke-width="0.894379" stroke-miterlimit="10"/>
<path d="M40.0039 16.9297V27.0242" stroke="#FF0000" stroke-width="0.894379" stroke-miterlimit="10"/>
<path d="M43.1641 16.9297V27.0302" stroke="#FF0000" stroke-width="0.894379" stroke-miterlimit="10"/>
<path d="M46.3281 16.9297V27.0242" stroke="#FF0000" stroke-width="0.894379" stroke-miterlimit="10"/>
<path d="M49.1719 17.0703V26.8787" stroke="#FF0000" stroke-width="0.894379" stroke-miterlimit="10"/>
<path d="M18.0146 12.6181C20.1024 12.6181 21.7949 12.2524 21.7949 11.8012C21.7949 11.3501 20.1024 10.9844 18.0146 10.9844C15.9268 10.9844 14.2344 11.3501 14.2344 11.8012C14.2344 12.2524 15.9268 12.6181 18.0146 12.6181Z" stroke="#FF0000" stroke-width="0.894379" stroke-miterlimit="10"/>
<path d="M17.6655 42.2954L16.3121 43.6488C16.1095 43.8514 16.1095 44.1798 16.3121 44.3824L17.6655 45.7358C17.8681 45.9384 18.1965 45.9384 18.3991 45.7358L19.7525 44.3824C19.9551 44.1798 19.9551 43.8514 19.7525 43.6488L18.3991 42.2954C18.1965 42.0929 17.8681 42.0929 17.6655 42.2954Z" stroke="#FF0000" stroke-width="0.894379" stroke-miterlimit="10"/>
<path d="M22.2194 16.2891H21.3906V18.042H22.2194V16.2891Z" fill="#FF0000"/>
<path d="M14.6569 16.2891H13.8281V18.042H14.6569V16.2891Z" fill="#FF0000"/>
<path d="M22.2194 11.8203H21.3906V15.4575H22.2194V11.8203Z" fill="#FF0000"/>
<path d="M14.6569 11.8203H13.8281V15.4575H14.6569V11.8203Z" fill="#FF0000"/>
<path d="M21.3946 18.875V51.5794C21.3946 52.1697 20.9116 52.6527 20.3213 52.6527H15.7302C15.1399 52.6527 14.6569 52.1697 14.6569 51.5794V18.875H13.8281V51.5794C13.8281 52.6288 14.6808 53.4815 15.7302 53.4815H20.3213C21.3707 53.4815 22.2234 52.6288 22.2234 51.5794V18.875H21.3946Z" fill="#FF0000"/>
<path d="M15.1641 15.8828H20.8821" stroke="#FF0000" stroke-width="0.894379" stroke-miterlimit="10"/>
<path d="M15.1641 18.4688H20.8821" stroke="#FF0000" stroke-width="0.894379" stroke-miterlimit="10"/>
<path d="M14.2344 21.2109H21.8008" stroke="#FF0000" stroke-width="0.894379" stroke-miterlimit="10"/>
<path d="M40.1047 39.5781L29.0323 48.1343C28.7103 48.3848 28.6507 48.8498 28.9011 49.1778L30.4156 51.1395C30.666 51.4614 31.1311 51.5211 31.459 51.2706L42.5314 42.7144" stroke="#FF0000" stroke-width="0.894379" stroke-miterlimit="10"/>
<path d="M28.7278 52.8485C29.0558 52.5944 28.8982 51.8418 28.3758 51.1676C27.8534 50.4934 27.164 50.1529 26.8361 50.407C26.5081 50.6612 26.6657 51.4137 27.1881 52.0879C27.7104 52.7621 28.3998 53.1026 28.7278 52.8485Z" stroke="#FF0000" stroke-width="0.894379" stroke-miterlimit="10"/>
<path d="M28.5969 49.0469L26.832 50.4123" stroke="#FF0000" stroke-width="0.894379" stroke-miterlimit="10"/>
<path d="M30.4954 51.4844L28.7305 52.8498" stroke="#FF0000" stroke-width="0.894379" stroke-miterlimit="10"/>
<path d="M51.69 33.1369C50.2233 31.2409 45.6798 29.5117 42.8297 34.2698L39.8425 39.1054C39.7292 39.2903 39.7411 39.5228 39.8783 39.6957L42.3885 42.9334C42.5197 43.1063 42.7462 43.1778 42.949 43.1122L48.3868 41.4308C53.7054 39.8567 53.1687 35.0271 51.702 33.131L51.69 33.1369Z" fill="#FF0000"/>
<path d="M9.35548 2.31176V30.6099H2.24219V2.31176C2.24219 1.59029 2.83248 1 3.55394 1H8.03776C8.75923 1 9.34952 1.59029 9.34952 2.31176H9.35548Z" stroke="#FF0000" stroke-width="0.894379" stroke-miterlimit="10"/>
<path d="M2.24219 37.7344H9.35548V51.7403C9.35548 52.4618 8.76519 53.0521 8.04372 53.0521H3.55991C2.83844 53.0521 2.24815 52.4618 2.24815 51.7403V37.7344H2.24219Z" stroke="#FF0000" stroke-width="0.894379" stroke-miterlimit="10"/>
<path d="M2.26562 6.80469H5.10975" stroke="#FF0000" stroke-width="0.894379" stroke-miterlimit="10" stroke-linecap="round"/>
<path d="M2.26562 9.5625H5.10975" stroke="#FF0000" stroke-width="0.894379" stroke-miterlimit="10" stroke-linecap="round"/>
<path d="M2.26562 12.3281H5.10975" stroke="#FF0000" stroke-width="0.894379" stroke-miterlimit="10" stroke-linecap="round"/>
<path d="M2.26562 15.0938H5.10975" stroke="#FF0000" stroke-width="0.894379" stroke-miterlimit="10" stroke-linecap="round"/>
<path d="M2.26562 17.8516H5.10975" stroke="#FF0000" stroke-width="0.894379" stroke-miterlimit="10" stroke-linecap="round"/>
<path d="M2.26562 20.6172H5.10975" stroke="#FF0000" stroke-width="0.894379" stroke-miterlimit="10" stroke-linecap="round"/>
<path d="M2.26562 4.04688H5.10975" stroke="#FF0000" stroke-width="0.894379" stroke-miterlimit="10" stroke-linecap="round"/>
<path d="M6.50781 6.80469H9.35194" stroke="#FF0000" stroke-width="0.894379" stroke-miterlimit="10" stroke-linecap="round"/>
<path d="M6.50781 9.5625H9.35194" stroke="#FF0000" stroke-width="0.894379" stroke-miterlimit="10" stroke-linecap="round"/>
<path d="M6.50781 12.3281H9.35194" stroke="#FF0000" stroke-width="0.894379" stroke-miterlimit="10" stroke-linecap="round"/>
<path d="M6.50781 15.0938H9.35194" stroke="#FF0000" stroke-width="0.894379" stroke-miterlimit="10" stroke-linecap="round"/>
<path d="M6.50781 17.8438H9.35194" stroke="#FF0000" stroke-width="0.894379" stroke-miterlimit="10" stroke-linecap="round"/>
<path d="M6.50781 20.6172H9.35194" stroke="#FF0000" stroke-width="0.894379" stroke-miterlimit="10" stroke-linecap="round"/>
<path d="M6.50781 4.04688H9.35194" stroke="#FF0000" stroke-width="0.894379" stroke-miterlimit="10" stroke-linecap="round"/>
<path d="M2.24219 23.2734H5.09227" stroke="#FF0000" stroke-width="0.894379" stroke-miterlimit="10" stroke-linecap="round"/>
<path d="M2.24219 26.0312H5.09227" stroke="#FF0000" stroke-width="0.894379" stroke-miterlimit="10" stroke-linecap="round"/>
<path d="M6.48828 23.2734H9.33837" stroke="#FF0000" stroke-width="0.894379" stroke-miterlimit="10" stroke-linecap="round"/>
<path d="M6.48828 26.0312H9.33837" stroke="#FF0000" stroke-width="0.894379" stroke-miterlimit="10" stroke-linecap="round"/>
<path d="M10.0822 30.6172H1.51999C1.06885 30.6172 0.703125 30.9829 0.703125 31.4341V36.9255C0.703125 37.3767 1.06885 37.7424 1.51999 37.7424H10.0822C10.5333 37.7424 10.899 37.3767 10.899 36.9255V31.4341C10.899 30.9829 10.5333 30.6172 10.0822 30.6172Z" stroke="#FF0000" stroke-width="0.894379" stroke-miterlimit="10"/>
</svg>
