<?xml version="1.0" encoding="utf-8"?>
<!-- Generator: Adobe Illustrator 24.0.1, SVG Export Plug-In . SVG Version: 6.00 Build 0)  -->
<svg version="1.1" id="Layer_1" xmlns="http://www.w3.org/2000/svg" xmlns:xlink="http://www.w3.org/1999/xlink" x="0px" y="0px"
	 viewBox="0 0 76.9 88.8" style="enable-background:new 0 0 76.9 88.8;" xml:space="preserve">
<style type="text/css">
	.st0{fill:none;stroke:#000000;stroke-width:1.5;stroke-linecap:round;stroke-miterlimit:10;}
	.st1{stroke:#000000;stroke-width:1.5;stroke-linecap:round;stroke-miterlimit:10;}
</style>
<g>
	<path class="st0" d="M73,50.2l0,15.6c0,1-0.8,1.8-1.8,1.9L37.3,72"/>
	<path d="M43.8,78.8H31.1c-1.6,0-2.8-1.3-2.8-2.8V65.8c0-1.6,1.3-2.8,2.8-2.8h12.7c1.6,0,2.8,1.3,2.8,2.8V76
		C46.6,77.5,45.3,78.8,43.8,78.8z"/>
	<path d="M63.2,70.2c-3.6,10.9-13.8,18.6-25.8,18.6c-14,0-25.7-10.5-27-24.5v-0.1h0.1c0.5,0,0.9-0.2,1.2-0.4
		c0.1,0.1,0.1,0.2,0.1,0.4c1.3,13.2,12.3,23.2,25.6,23.2c11.1,0,20.6-6.9,24.2-16.9L63.2,70.2z"/>
	<path d="M64.5,64.2L64.5,64.2c-0.1,1.1-0.2,2-0.5,3l-1.5,0.2c0.2-1.1,0.4-2.1,0.5-3.2c0-0.1,0.1-0.3,0.1-0.4
		c0.3,0.3,0.7,0.4,1.2,0.4H64.5z"/>
	<path class="st0" d="M69.8,29.9l0,32.4c0,1.1-0.9,1.9-1.9,1.9h-3.5c-0.4,0-0.9-0.2-1.2-0.4c-0.4-0.3-0.7-0.9-0.7-1.5V44.6
		c0-8.6-7-15.6-15.6-15.6H28.1c-8.6,0-15.6,7-15.6,15.6v17.7c0,0.6-0.3,1.2-0.7,1.5c-0.3,0.3-0.8,0.4-1.2,0.4H7.1
		c-1.1,0-1.9-0.9-1.9-1.9l0-32.4C5.1-9,69.8-8.9,69.8,29.9z"/>
	<circle cx="37.5" cy="44.4" r="1.3"/>
	<g>
		<circle cx="41.8" cy="55.6" r="1.3"/>
		<circle cx="37.5" cy="58.6" r="1.3"/>
		<circle cx="33.1" cy="55.6" r="1.3"/>
	</g>
	<g>
		<circle cx="18.2" cy="44.4" r="1.3"/>
		<circle cx="22.5" cy="41.3" r="1.3"/>
		<circle cx="22.5" cy="47.3" r="1.3"/>
		<circle cx="26.9" cy="44.4" r="1.3"/>
	</g>
	<g>
		<circle cx="56.8" cy="44.4" r="1.3"/>
		<circle cx="52.4" cy="41.3" r="1.3"/>
		<circle cx="52.4" cy="47.3" r="1.3"/>
		<circle cx="48.1" cy="44.4" r="1.3"/>
	</g>
	<circle cx="21.6" cy="64.2" r="1.3"/>
	<circle cx="16.7" cy="64.2" r="1.3"/>
	<circle cx="21.6" cy="59.3" r="1.3"/>
	<circle cx="53.4" cy="64.2" r="1.3"/>
	<circle cx="58.2" cy="64.2" r="1.3"/>
	<circle cx="53.4" cy="59.3" r="1.3"/>
	<circle cx="37.4" cy="83.2" r="1.3"/>
	<path class="st0" d="M5.1,31.2H2.7c-1.1,0-1.9,0.9-1.9,1.9v15.1c0,1.1,0.9,1.9,1.9,1.9h2.4"/>
	<path class="st1" d="M69.8,50.2h4.4c1.1,0,1.9-0.9,1.9-1.9V33.2c0-1.1-0.9-1.9-1.9-1.9h-4.4"/>
</g>
</svg>
