<svg width="54" height="54" viewBox="0 0 54 54" fill="none" xmlns="http://www.w3.org/2000/svg">
<path d="M17.7059 1.00781H4.75425C2.51687 1.00781 0.703125 2.82012 0.703125 5.05571V5.09738C0.703125 7.33297 2.51687 9.14528 4.75425 9.14528H17.7059C19.9433 9.14528 21.7571 7.33297 21.7571 5.09738V5.05571C21.7571 2.82012 19.9433 1.00781 17.7059 1.00781Z" stroke="#FF0000" stroke-width="0.89363" stroke-miterlimit="10" stroke-linecap="round"/>
<path d="M4.78516 1.00781V9.14528" stroke="#FF0000" stroke-width="0.89363" stroke-miterlimit="10"/>
<path d="M17.7109 1.00781V9.14528" stroke="#FF0000" stroke-width="0.89363" stroke-miterlimit="10"/>
<path d="M17.9062 44.8646L26.7294 38.9297L35.6895 44.8646" fill="#FF0000"/>
<path d="M26.7325 40.2502L26.7266 15.9688" stroke="#FF0000" stroke-width="0.89363" stroke-miterlimit="10" stroke-linecap="round"/>
<path d="M11.2344 9.43378V15.3449C11.2344 15.6783 11.4608 15.9521 11.7408 15.9521L41.6297 15.9759C41.9097 15.9759 42.1361 15.7021 42.1361 15.3687V9.42188" stroke="#FF0000" stroke-width="0.89363" stroke-miterlimit="10" stroke-linecap="round"/>
<path d="M1.21484 44.8672H52.6284" stroke="#FF0000" stroke-width="0.89363" stroke-miterlimit="10" stroke-linecap="round"/>
<path d="M26.7266 44.8672V53.0047" stroke="#FF0000" stroke-width="0.89363" stroke-miterlimit="10" stroke-linecap="round"/>
<path d="M20.644 44.8672L18.0703 53.0047" stroke="#FF0000" stroke-width="0.89363" stroke-miterlimit="10" stroke-linecap="round"/>
<path d="M14.7793 44.8672L9.32812 53.0047" stroke="#FF0000" stroke-width="0.89363" stroke-miterlimit="10" stroke-linecap="round"/>
<path d="M8.79346 44.8672L0.703125 53.0047" stroke="#FF0000" stroke-width="0.89363" stroke-miterlimit="10" stroke-linecap="round"/>
<path d="M32.7578 44.8672L35.3315 53.0047" stroke="#FF0000" stroke-width="0.89363" stroke-miterlimit="10" stroke-linecap="round"/>
<path d="M38.6328 44.8672L44.084 52.9987" stroke="#FF0000" stroke-width="0.89363" stroke-miterlimit="10" stroke-linecap="round"/>
<path d="M44.6133 44.8672L52.7036 53.0047" stroke="#FF0000" stroke-width="0.89363" stroke-miterlimit="10" stroke-linecap="round"/>
<path d="M3.9946 3.02344H3.13672V3.77409H3.9946V3.02344Z" fill="#FF0000"/>
<path d="M3.9946 4.86719H3.13672V5.61784H3.9946V4.86719Z" fill="#FF0000"/>
<path d="M3.9946 6.57812H3.13672V7.32877H3.9946V6.57812Z" fill="#FF0000"/>
<path d="M2.54929 3.83594H1.69141V4.58659H2.54929V3.83594Z" fill="#FF0000"/>
<path d="M2.54929 5.54688H1.69141V6.29752H2.54929V5.54688Z" fill="#FF0000"/>
<path d="M18.4429 7.32812H19.3008V6.57748H18.4429V7.32812Z" fill="#FF0000"/>
<path d="M18.4429 5.48438H19.3008V4.73373H18.4429V5.48438Z" fill="#FF0000"/>
<path d="M18.4429 3.77344H19.3008V3.02279H18.4429V3.77344Z" fill="#FF0000"/>
<path d="M19.8765 6.50781H20.7344V5.75716H19.8765V6.50781Z" fill="#FF0000"/>
<path d="M19.8765 4.79688H20.7344V4.04623H19.8765V4.79688Z" fill="#FF0000"/>
<path d="M6.79538 1.90625H5.9375V2.6569H6.79538V1.90625Z" fill="#FF0000"/>
<path d="M6.79538 3.79688H5.9375V4.54752H6.79538V3.79688Z" fill="#FF0000"/>
<path d="M6.79538 5.69531H5.9375V6.44596H6.79538V5.69531Z" fill="#FF0000"/>
<path d="M6.79538 7.57031H5.9375V8.32096H6.79538V7.57031Z" fill="#FF0000"/>
<path d="M8.37351 2.97656H7.51562V3.72721H8.37351V2.97656Z" fill="#FF0000"/>
<path d="M8.37351 4.80469H7.51562V5.55534H8.37351V4.80469Z" fill="#FF0000"/>
<path d="M8.37351 6.51562H7.51562V7.26627H8.37351V6.51562Z" fill="#FF0000"/>
<path d="M10.393 1.91406H9.53516V2.66471H10.393V1.91406Z" fill="#FF0000"/>
<path d="M10.393 3.80469H9.53516V4.55534H10.393V3.80469Z" fill="#FF0000"/>
<path d="M10.393 5.69531H9.53516V6.44596H10.393V5.69531Z" fill="#FF0000"/>
<path d="M10.393 7.58594H9.53516V8.33659H10.393V7.58594Z" fill="#FF0000"/>
<path d="M12.4594 2.97656H11.6016V3.72721H12.4594V2.97656Z" fill="#FF0000"/>
<path d="M12.4594 4.80469H11.6016V5.55534H12.4594V4.80469Z" fill="#FF0000"/>
<path d="M12.4594 6.51562H11.6016V7.26627H12.4594V6.51562Z" fill="#FF0000"/>
<path d="M14.479 1.91406H13.6211V2.66471H14.479V1.91406Z" fill="#FF0000"/>
<path d="M14.479 3.80469H13.6211V4.55534H14.479V3.80469Z" fill="#FF0000"/>
<path d="M14.479 5.69531H13.6211V6.44596H14.479V5.69531Z" fill="#FF0000"/>
<path d="M14.479 7.58594H13.6211V8.33659H14.479V7.58594Z" fill="#FF0000"/>
<path d="M16.5571 2.96094H15.6992V3.71159H16.5571V2.96094Z" fill="#FF0000"/>
<path d="M16.5571 4.80469H15.6992V5.55534H16.5571V4.80469Z" fill="#FF0000"/>
<path d="M16.5571 6.50781H15.6992V7.25846H16.5571V6.50781Z" fill="#FF0000"/>
<path d="M48.6122 1H35.6605C33.4231 1 31.6094 2.81231 31.6094 5.0479V5.08957C31.6094 7.32516 33.4231 9.13746 35.6605 9.13746H48.6122C50.8496 9.13746 52.6633 7.32516 52.6633 5.08957V5.0479C52.6633 2.81231 50.8496 1 48.6122 1Z" stroke="#FF0000" stroke-width="0.89363" stroke-miterlimit="10" stroke-linecap="round"/>
<path d="M34.9126 3.01562H34.0547V3.76627H34.9126V3.01562Z" fill="#FF0000"/>
<path d="M34.9126 4.85938H34.0547V5.61002H34.9126V4.85938Z" fill="#FF0000"/>
<path d="M34.9126 6.57031H34.0547V7.32096H34.9126V6.57031Z" fill="#FF0000"/>
<path d="M33.4673 3.82812H32.6094V4.57877H33.4673V3.82812Z" fill="#FF0000"/>
<path d="M33.4673 5.53906H32.6094V6.28971H33.4673V5.53906Z" fill="#FF0000"/>
<path d="M49.3531 7.32031H50.2109V6.56966H49.3531V7.32031Z" fill="#FF0000"/>
<path d="M49.3531 5.47656H50.2109V4.72591H49.3531V5.47656Z" fill="#FF0000"/>
<path d="M49.3531 3.76562H50.2109V3.01498H49.3531V3.76562Z" fill="#FF0000"/>
<path d="M50.7866 6.5H51.6445V5.74935H50.7866V6.5Z" fill="#FF0000"/>
<path d="M50.7866 4.78906H51.6445V4.03841H50.7866V4.78906Z" fill="#FF0000"/>
<path d="M37.7094 1.90625H36.8516V2.6569H37.7094V1.90625Z" fill="#FF0000"/>
<path d="M37.7094 3.79688H36.8516V4.54752H37.7094V3.79688Z" fill="#FF0000"/>
<path d="M37.7094 5.67969H36.8516V6.43034H37.7094V5.67969Z" fill="#FF0000"/>
<path d="M37.7094 7.57031H36.8516V8.32096H37.7094V7.57031Z" fill="#FF0000"/>
<path d="M39.2759 2.96875H38.418V3.7194H39.2759V2.96875Z" fill="#FF0000"/>
<path d="M39.2759 4.79688H38.418V5.54752H39.2759V4.79688Z" fill="#FF0000"/>
<path d="M39.2759 6.50781H38.418V7.25846H39.2759V6.50781Z" fill="#FF0000"/>
<path d="M41.2954 1.90625H40.4375V2.6569H41.2954V1.90625Z" fill="#FF0000"/>
<path d="M41.2954 3.79688H40.4375V4.54752H41.2954V3.79688Z" fill="#FF0000"/>
<path d="M41.2954 5.6875H40.4375V6.43815H41.2954V5.6875Z" fill="#FF0000"/>
<path d="M41.2954 7.57812H40.4375V8.32877H41.2954V7.57812Z" fill="#FF0000"/>
<path d="M43.3774 2.96875H42.5195V3.7194H43.3774V2.96875Z" fill="#FF0000"/>
<path d="M43.3774 4.79688H42.5195V5.54752H43.3774V4.79688Z" fill="#FF0000"/>
<path d="M43.3774 6.50781H42.5195V7.25846H43.3774V6.50781Z" fill="#FF0000"/>
<path d="M45.3969 1.90625H44.5391V2.6569H45.3969V1.90625Z" fill="#FF0000"/>
<path d="M45.3969 3.79688H44.5391V4.54752H45.3969V3.79688Z" fill="#FF0000"/>
<path d="M45.3969 5.6875H44.5391V6.43815H45.3969V5.6875Z" fill="#FF0000"/>
<path d="M45.3969 7.57812H44.5391V8.32877H45.3969V7.57812Z" fill="#FF0000"/>
<path d="M47.4634 2.95312H46.6055V3.70377H47.4634V2.95312Z" fill="#FF0000"/>
<path d="M47.4634 4.79688H46.6055V5.54752H47.4634V4.79688Z" fill="#FF0000"/>
<path d="M47.4634 6.5H46.6055V7.25065H47.4634V6.5Z" fill="#FF0000"/>
<path d="M35.6992 1V9.13746" stroke="#FF0000" stroke-width="0.89363" stroke-miterlimit="10"/>
<path d="M48.6172 1V9.13746" stroke="#FF0000" stroke-width="0.89363" stroke-miterlimit="10"/>
</svg>
