<svg width="49" height="49" viewBox="0 0 49 49" fill="none" xmlns="http://www.w3.org/2000/svg">
<path d="M22.0592 21.132C23.5459 21.132 24.7512 19.9377 24.7512 18.4644C24.7512 16.9912 23.5459 15.7969 22.0592 15.7969C20.5724 15.7969 19.3672 16.9912 19.3672 18.4644C19.3672 19.9377 20.5724 21.132 22.0592 21.132Z" fill="black"/>
<path d="M9.5579 37.1381C7.1823 35.0663 6.98388 32.4148 9.03237 30.0156" stroke="black" stroke-miterlimit="10" stroke-linecap="round"/>
<path d="M7.3268 39.3774C3.57303 36.1033 3.262 31.9168 6.49561 28.1328" stroke="black" stroke-miterlimit="10" stroke-linecap="round"/>
<path d="M4.99591 41.2846C0.0838301 37.0015 -0.323722 31.5268 3.90731 26.5781" stroke="black" stroke-miterlimit="10" stroke-linecap="round"/>
<path d="M24.5644 41.2891V46.8765C24.5644 47.6119 25.1489 48.1862 25.8889 48.2023L39.8851 48.1862C40.6305 48.1862 41.2419 47.5797 41.2419 46.839L41.2579 35.6427C41.2794 34.4887 41.9551 33.4314 43.0222 32.9859C49.1087 30.4686 48.1381 18.0272 48.1381 18.0272C47.6662 4.35121 37.8098 1.46359 31.348 1.04494C27.562 0.803407 23.7439 1.528 20.4406 3.40119C19.4271 3.9755 18.4297 4.66788 17.6092 5.48908C15.3891 7.71116 14.2469 9.51458 14.2844 15.1771C14.2844 15.5099 14.2254 15.8373 14.0914 16.1379L10.2679 25.2784C9.91932 26.0889 10.5253 26.9906 11.4262 26.9906H13.6034C14.3434 26.9906 14.8904 27.6078 14.8904 28.3378V30.5652C14.8904 30.7531 15.0405 30.9248 15.2229 30.9624C16.8531 31.2845 18.0489 32.1271 18.0489 33.8715C18.0489 35.7286 17.0622 36.7269 15.2658 36.8987C15.062 36.9201 14.8904 37.0919 14.8904 37.3012V37.999V38.5948C14.8904 40.0815 16.1077 41.2891 17.6092 41.2891H33.0533C33.7987 41.2891 34.41 40.6773 34.41 39.9312V38.5411" stroke="black" stroke-miterlimit="10" stroke-linecap="round"/>
</svg>
