<svg width="62" height="52" viewBox="0 0 62 52" fill="none" xmlns="http://www.w3.org/2000/svg">
<path d="M8.51172 33.2589C8.51172 33.2589 15.1147 23.8402 26.0432 24.7313C28.3205 24.917 30.5422 25.5358 32.8257 25.5358H41.9534C43.9832 25.5358 45.6355 27.1819 45.6355 29.2179C45.6355 31.2477 43.9894 32.8999 41.9534 32.8999H32.1078" stroke="#FF0000" stroke-miterlimit="10" stroke-linecap="round"/>
<path d="M19.668 43.7393C19.668 43.7393 22.6879 40.3234 27.8984 39.9644C31.8342 39.6922 37.5027 39.7788 40.8506 39.8716C44.5389 39.9706 48.1157 38.4669 50.5044 35.6574C50.5415 35.6141 50.5787 35.5707 50.6096 35.5274C53.0849 32.5632 57.5034 26.9566 59.9849 23.7882C61.0307 22.4515 60.9132 20.5517 59.7126 19.3511C58.4007 18.0392 56.2781 18.0392 54.9662 19.3511L45.6032 28.7141" stroke="#FF0000" stroke-miterlimit="10" stroke-linecap="round"/>
<path d="M19.6735 43.736L8.69897 32.7615C8.0368 32.0993 6.9632 32.0993 6.30103 32.7615L1.90334 37.1592C1.24117 37.8213 1.24117 38.8949 1.90334 39.5571L12.8779 50.5316C13.54 51.1938 14.6136 51.1938 15.2758 50.5316L19.6735 46.1339C20.3357 45.4718 20.3357 44.3982 19.6735 43.736Z" fill="#FF0000"/>
<path d="M19.94 3.92506C19.94 3.67134 19.7296 3.46094 19.4758 3.46094C19.2221 3.46094 19.0117 3.67134 19.0117 3.92506V9.12326H19.94V3.92506Z" fill="#FF0000"/>
<path d="M22.2525 1.59694C22.2525 1.34322 22.0421 1.13281 21.7883 1.13281C21.5346 1.13281 21.3242 1.34322 21.3242 1.59694V9.12194H22.2525V1.59694Z" fill="#FF0000"/>
<path d="M21.3242 11.7022C21.3242 11.9559 21.5346 12.1663 21.7883 12.1663C22.0421 12.1663 22.2525 11.9559 22.2525 11.7022V10.9844H21.3242V11.7022Z" fill="#FF0000"/>
<path d="M24.565 0.464124C24.565 0.210403 24.3546 0 24.1008 0C23.8471 0 23.6367 0.210403 23.6367 0.464124V9.12159H24.565V0.464124Z" fill="#FF0000"/>
<path d="M23.6367 14.1961C23.6367 14.4498 23.8471 14.6602 24.1008 14.6602C24.3546 14.6602 24.565 14.4498 24.565 14.1961V10.9844H23.6367V14.1961Z" fill="#FF0000"/>
<path d="M25.957 16.4053C25.957 16.6591 26.1674 16.8695 26.4212 16.8695C26.6749 16.8695 26.8853 16.6591 26.8853 16.4053V10.9844H25.957V16.4053Z" fill="#FF0000"/>
<path d="M26.8853 0.464124C26.8853 0.210403 26.6749 0 26.4212 0C26.1674 0 25.957 0.210403 25.957 0.464124V9.12159H26.8853V0.464124Z" fill="#FF0000"/>
<path d="M28.2695 18.4938C28.2695 18.7475 28.4799 18.9579 28.7337 18.9579C28.9874 18.9579 29.1978 18.7475 29.1978 18.4938V10.9688H28.2695V18.4938Z" fill="#FF0000"/>
<path d="M29.1978 1.59694C29.1978 1.34322 28.9874 1.13281 28.7337 1.13281C28.4799 1.13281 28.2695 1.34322 28.2695 1.59694V9.12194H29.1978V1.59694Z" fill="#FF0000"/>
<path d="M43.0884 3.92506C43.0884 3.67134 42.878 3.46094 42.6243 3.46094C42.3706 3.46094 42.1602 3.67134 42.1602 3.92506V9.12326H43.0884V3.92506Z" fill="#FF0000"/>
<path d="M39.8477 11.7022C39.8477 11.9559 40.0581 12.1663 40.3118 12.1663C40.5655 12.1663 40.7759 11.9559 40.7759 11.7022V10.9844H39.8477V11.7022Z" fill="#FF0000"/>
<path d="M40.7759 1.59694C40.7759 1.34322 40.5655 1.13281 40.3118 1.13281C40.0581 1.13281 39.8477 1.34322 39.8477 1.59694V9.12194H40.7759V1.59694Z" fill="#FF0000"/>
<path d="M37.5352 14.1961C37.5352 14.4498 37.7456 14.6602 37.9993 14.6602C38.253 14.6602 38.4634 14.4498 38.4634 14.1961V10.9844H37.5352V14.1961Z" fill="#FF0000"/>
<path d="M38.4634 0.464124C38.4634 0.210403 38.253 0 37.9993 0C37.7456 0 37.5352 0.210403 37.5352 0.464124V9.12159H38.4634V0.464124Z" fill="#FF0000"/>
<path d="M35.2148 16.4053C35.2148 16.6591 35.4252 16.8695 35.679 16.8695C35.9327 16.8695 36.1431 16.6591 36.1431 16.4053V10.9844H35.2148V16.4053Z" fill="#FF0000"/>
<path d="M36.1431 0.464124C36.1431 0.210403 35.9327 0 35.679 0C35.4252 0 35.2148 0.210403 35.2148 0.464124V9.12159H36.1431V0.464124Z" fill="#FF0000"/>
<path d="M32.9023 18.4938C32.9023 18.7475 33.1127 18.9579 33.3665 18.9579C33.6202 18.9579 33.8306 18.7475 33.8306 18.4938V10.9688H32.9023V18.4938Z" fill="#FF0000"/>
<path d="M33.8306 1.59694C33.8306 1.34322 33.6202 1.13281 33.3665 1.13281C33.1127 1.13281 32.9023 1.34322 32.9023 1.59694V9.12194H33.8306V1.59694Z" fill="#FF0000"/>
<path d="M31.5181 3.47194C31.5181 3.21822 31.3077 3.00781 31.054 3.00781C30.8002 3.00781 30.5898 3.21822 30.5898 3.47194V9.12188H31.5181V3.47194Z" fill="#FF0000"/>
<path d="M30.5898 21.3993C30.5898 21.653 30.8002 21.8635 31.054 21.8635C31.3077 21.8635 31.5181 21.653 31.5181 21.3993V10.9844H30.5898V21.3993Z" fill="#FF0000"/>
<path d="M19.2344 10.0469H43.2141" stroke="#FF0000" stroke-miterlimit="10" stroke-linecap="round"/>
</svg>
