<svg width="43" height="43" viewBox="0 0 43 43" fill="none" xmlns="http://www.w3.org/2000/svg">
<path d="M40.4024 13.5011C38.5459 9.10877 35.19 5.50133 30.9688 3.31775C33.4894 0.832295 37.3585 0.937952 38.2541 0.998328C38.3748 1.00839 38.4855 1.0587 38.571 1.14424C42.7621 5.49127 40.5735 12.9376 40.4024 13.5011Z" fill="black"/>
<path d="M12.0225 3.31275C7.80629 5.50136 4.45042 9.1088 2.59387 13.5011C2.42281 12.9376 0.234196 5.4913 4.42526 1.14426C4.51079 1.05873 4.62148 1.00841 4.74223 0.998352C5.6378 0.937977 9.50184 0.83232 12.0225 3.31275Z" fill="black"/>
<path d="M40.4051 13.5005C38.5485 9.10819 35.1927 5.50076 30.9714 3.31718C28.1388 1.84301 24.9137 1.00781 21.4975 1.00781C18.0812 1.00781 14.8562 1.84301 12.0236 3.31214C7.80734 5.50076 4.45147 9.10819 2.59492 13.5005C1.56854 15.9306 1 18.6022 1 21.4047C1 32.6697 10.1771 41.8015 21.4975 41.8015C32.8179 41.8015 42 32.6697 42 21.4047C42 18.6022 41.4315 15.9306 40.4051 13.5005ZM21.4975 39.955C12.1141 39.955 4.51184 33.4345 4.51184 25.3895C4.51184 19.2714 8.68781 14.2653 14.9115 12.1219C15.2687 12.0012 15.6662 12.1018 15.9379 12.3685L20.7881 17.1985C21.1805 17.591 21.8145 17.591 22.2119 17.1985L27.0671 12.3685C27.3338 12.1018 27.7363 12.0012 28.0935 12.127C34.3122 14.2703 38.4882 19.2714 38.4882 25.3895C38.4882 33.4345 30.8808 39.955 21.4975 39.955Z" stroke="black" stroke-miterlimit="10"/>
<path d="M10.3242 22.542C10.3242 22.542 16.1303 20.4138 17.7353 25.0526" stroke="black" stroke-miterlimit="10" stroke-linecap="round"/>
<path d="M32.6142 22.542C32.6142 22.542 26.8081 20.4138 25.2031 25.0526" stroke="black" stroke-miterlimit="10" stroke-linecap="round"/>
<path d="M14.2113 31.5234C14.2113 31.5234 14.0402 34.7988 21.4714 34.7988C28.9026 34.7988 28.7265 31.5234 28.7265 31.5234" stroke="black" stroke-miterlimit="10" stroke-linecap="round"/>
</svg>
